<svg xmlns="http://www.w3.org/2000/svg" width="92" height="93" viewBox="0 0 92 93" fill="none"><rect y="0.680176" width="92" height="92" rx="46" fill="#ED2838"></rect><path d="M46.6632 19.0801H55.778C55.9524 22.9177 57.283 26.2564 60.0239 28.9632C62.7648 31.67 66.0594 32.9467 69.9336 33.0976V42.1416C67.4147 42.2519 64.9005 41.8362 62.552 40.9212C60.2675 39.9951 58.0881 38.8156 55.8139 37.7258C55.8139 37.9176 55.8139 38.2553 55.8139 38.5931C55.8344 44.8919 55.8806 51.1907 55.8754 57.4869C55.8754 65.7173 50.6373 72.4638 42.6762 74.5668C33.0691 77.1022 23.2748 71.0951 21.1006 61.3322C19.0007 51.9096 25.3747 42.4639 35.0869 40.7421C36.9509 40.4121 38.8841 40.4863 40.8763 40.3558V49.7196C39.379 49.7196 37.8432 49.4637 36.4202 49.7682C34.428 50.2032 32.6711 51.3661 31.4949 53.0284C30.3187 54.6907 29.8083 56.732 30.0642 58.7507C30.3039 60.7887 31.2932 62.6654 32.8403 64.0173C34.3874 65.3691 36.3823 66.0998 38.4385 66.068C40.4946 66.0361 42.4658 65.2439 43.9701 63.8449C45.4745 62.4458 46.4049 60.5393 46.5811 58.4949C46.6324 57.9551 46.6427 57.4101 46.6452 56.8678C46.6452 44.717 46.6503 32.568 46.6606 20.4207C46.6657 20.0037 46.6632 19.5918 46.6632 19.0801Z" fill="white"></path></svg>