<svg xmlns="http://www.w3.org/2000/svg" width="92" height="93" viewBox="0 0 92 93" fill="none"><rect y="0.680176" width="92" height="92" rx="46" fill="#ED2838"></rect><path d="M37.1869 92.6801C37.189 92.5113 37.1926 91.3808 37.1926 91.2119C37.1926 81.8299 37.1933 72.4478 37.1912 63.0658C37.1912 62.4397 37.2786 62.5165 36.6618 62.5158C34.1782 62.5127 31.6953 62.515 29.2117 62.5142C28.7051 62.5142 28.7342 62.5781 28.7342 62.0281C28.7342 57.8647 28.7342 53.7012 28.7342 49.5378C28.7342 49.4533 28.7378 49.3689 28.7342 49.2844C28.7271 49.1239 28.7939 49.0509 28.9453 49.0608C29.0369 49.0669 29.1293 49.0608 29.221 49.0608C31.7309 49.0608 34.24 49.0608 36.7499 49.0608C37.2516 49.0608 37.1912 49.0958 37.1919 48.5846C37.1976 46.3906 37.167 44.1952 37.2132 42.002C37.275 39.0694 37.6047 36.1725 38.4525 33.3647C39.151 31.0498 40.1835 28.9334 41.7192 27.1214C43.4076 25.1283 45.4854 23.7734 47.8389 22.8773C49.6169 22.2002 51.4531 21.8108 53.327 21.597C54.7133 21.4388 56.1033 21.3634 57.4961 21.3832C58.81 21.4015 60.1189 21.511 61.4258 21.6586C62.7709 21.8115 64.1111 21.9956 65.4371 22.2854C65.6297 22.3273 65.8194 22.3866 66.012 22.4292C66.1385 22.4574 66.1868 22.535 66.1811 22.6666C66.1776 22.751 66.1811 22.8355 66.1811 22.9199C66.1811 26.6612 66.1811 30.4032 66.1811 34.1444C66.1811 34.1863 66.1819 34.2289 66.1811 34.2707C66.1762 34.6419 66.1755 34.6442 65.833 34.6199C64.0223 34.4944 62.2096 34.4776 60.3968 34.524C59.2918 34.5522 58.1989 34.7119 57.1308 35.0337C54.7404 35.7534 53.2175 37.392 52.5652 39.9594C52.2426 41.2298 52.1168 42.5284 52.1026 43.8384C52.0855 45.442 52.0983 47.0456 52.0983 48.6492C52.0983 48.7192 52.1019 48.79 52.099 48.8599C52.0926 49.0037 52.1587 49.0631 52.288 49.06C52.3932 49.0577 52.4984 49.0608 52.6036 49.0608C56.7421 49.0608 60.8814 49.0608 65.02 49.0608C65.5032 49.0608 65.5089 49.0623 65.4208 49.5758C64.9063 52.5883 64.3883 55.6 63.8724 58.6125C63.6734 59.7733 63.4766 60.9342 63.2804 62.0951C63.2101 62.512 63.2115 62.5135 62.8086 62.5135C59.4581 62.5135 56.1076 62.5135 52.757 62.5135C52.6654 62.5135 52.573 62.5127 52.4813 62.5135C52.1012 62.5165 52.099 62.5165 52.099 62.9288C52.0983 66.6138 52.099 70.2995 52.099 73.9845C52.099 80.0467 52.099 86.109 52.099 92.172C52.099 92.3409 52.1019 92.5097 52.1033 92.6778C51.5042 92.6801 37.8542 92.6801 37.1869 92.6801Z" fill="white"></path></svg>