<svg xmlns="http://www.w3.org/2000/svg" width="92" height="93" viewBox="0 0 92 93" fill="none"><rect y="0.680176" width="92" height="92" rx="46" fill="#ED2838"></rect><path d="M71.6572 33.9826C71.3612 32.8888 70.7827 31.8912 69.9793 31.0892C69.1759 30.2872 68.1755 29.7087 67.0779 29.4114C63.008 28.2984 46.7257 28.2803 46.7257 28.2803C46.7257 28.2803 30.446 28.2622 26.3735 29.326C25.2765 29.637 24.2783 30.2236 23.4745 31.0296C22.6708 31.8355 22.0886 32.8337 21.7838 33.9283C20.7104 37.9818 20.7 46.389 20.7 46.389C20.7 46.389 20.6896 54.8377 21.7552 58.8497C22.3529 61.068 24.1072 62.8204 26.3371 63.4183C30.4486 64.5314 46.6867 64.5495 46.6867 64.5495C46.6867 64.5495 62.969 64.5676 67.0389 63.5063C68.137 63.2096 69.1382 62.6325 69.9436 61.8321C70.7491 61.0317 71.3308 60.0359 71.6312 58.9429C72.7072 54.892 72.715 46.4874 72.715 46.4874C72.715 46.4874 72.767 38.0361 71.6572 33.9826ZM41.5174 54.1776L41.5304 38.647L55.0631 46.4252L41.5174 54.1776Z" fill="white"></path></svg>