<svg xmlns="http://www.w3.org/2000/svg" width="59" height="248" viewBox="0 0 59 248" fill="none"><rect width="248" height="59" transform="translate(0 248) rotate(-90)" fill="#ED2838"></rect><path d="M41.286 210.369C41.286 211.912 41.0087 213.134 40.454 214.035C39.8993 214.936 39.1107 215.586 38.088 215.985C37.048 216.366 35.8087 216.557 34.37 216.557L26.518 216.557C25.0793 216.557 23.8487 216.366 22.826 215.985C21.8033 215.586 21.0233 214.936 20.486 214.035C19.9487 213.134 19.68 211.912 19.68 210.369C19.68 208.809 19.9573 207.578 20.512 206.677C21.0493 205.758 21.8293 205.108 22.852 204.727C23.8573 204.328 25.0793 204.129 26.518 204.129L34.37 204.129C35.8087 204.129 37.048 204.328 38.088 204.727C39.1107 205.108 39.8993 205.758 40.454 206.677C41.0087 207.578 41.286 208.809 41.286 210.369ZM38.192 210.369C38.192 209.814 38.0707 209.407 37.828 209.147C37.568 208.887 37.23 208.714 36.814 208.627C36.3807 208.54 35.9213 208.497 35.436 208.497L25.478 208.497C24.9927 208.497 24.542 208.54 24.126 208.627C23.71 208.714 23.3807 208.887 23.138 209.147C22.878 209.407 22.748 209.814 22.748 210.369C22.748 210.889 22.878 211.279 23.138 211.539C23.3807 211.799 23.71 211.972 24.126 212.059C24.542 212.146 24.9927 212.189 25.478 212.189L35.436 212.189C35.9213 212.189 36.3807 212.154 36.814 212.085C37.23 211.998 37.568 211.825 37.828 211.565C38.0707 211.305 38.192 210.906 38.192 210.369ZM41 201.265L19.94 201.265L19.94 198.275L30.912 193.595L19.94 193.595L19.94 190.059L41 190.059L41 192.919L29.352 197.599L41 197.599L41 201.265ZM41 186.868L19.94 186.868L19.94 182.578L38.088 182.578L38.088 177.638L41 177.638L41 186.868ZM41 175.568L19.94 175.568L19.94 171.304L41 171.304L41 175.568ZM41 168.079L19.94 168.079L19.94 165.089L30.912 160.409L19.94 160.409L19.94 156.873L41 156.873L41 159.733L29.352 164.413L41 164.413L41 168.079ZM41 153.683L19.94 153.683L19.94 144.505L22.904 144.505L22.904 149.393L28.494 149.393L28.494 145.623L31.484 145.623L31.484 149.393L38.088 149.393L38.088 144.453L41 144.453L41 153.683ZM41 135.782L19.94 135.782L19.94 129.1C19.94 127.835 20.1827 126.803 20.668 126.006C21.136 125.209 21.8207 124.619 22.722 124.238C23.6233 123.839 24.7153 123.64 25.998 123.64C27.506 123.64 28.6847 123.9 29.534 124.42C30.3833 124.923 30.99 125.616 31.354 126.5C31.7007 127.384 31.874 128.398 31.874 129.542L31.874 131.492L41 131.492L41 135.782ZM28.858 131.492L28.858 129.984C28.858 129.36 28.7627 128.883 28.572 128.554C28.364 128.207 28.0433 127.973 27.61 127.852C27.1767 127.731 26.622 127.67 25.946 127.67C25.3047 127.67 24.7673 127.722 24.334 127.826C23.9007 127.913 23.5627 128.121 23.32 128.45C23.0773 128.779 22.956 129.299 22.956 130.01L22.956 131.492L28.858 131.492ZM41 123.644L19.94 119.562L19.94 114.804L41 110.748L41 114.726L36.372 115.48L36.372 118.808L41 119.614L41 123.644ZM33.746 118.418L33.746 115.896L25.244 117.17L33.746 118.418ZM41 106.823L32.654 106.823L19.94 110.931L19.94 106.901L27.35 104.639L19.94 102.533L19.94 98.633L32.654 102.689L41 102.689L41 106.823ZM41 97.0633L19.94 96.6993L19.94 92.1493L33.226 89.5493L19.94 86.7673L19.94 82.3733L41 82.0093L41 85.1293L26.726 85.4673L41 88.1453L41 90.8233L26.622 93.6313L41 93.9173L41 97.0633ZM41 78.9072L19.94 78.9072L19.94 69.7292L22.904 69.7292L22.904 74.6172L28.494 74.6172L28.494 70.8472L31.484 70.8472L31.484 74.6172L38.088 74.6172L38.088 69.6772L41 69.6772L41 78.9072ZM41 67.5068L19.94 67.5068L19.94 64.5168L30.912 59.8368L19.94 59.8368L19.94 56.3008L41 56.3008L41 59.1608L29.352 63.8408L41 63.8408L41 67.5068ZM41 51.1343L23.138 51.1343L23.138 54.3843L19.94 54.3843L19.94 43.6203L23.138 43.6203L23.138 46.8183L41 46.8183L41 51.1343ZM41.286 36.2499C41.286 37.5499 41.052 38.6332 40.584 39.4999C40.0987 40.3666 39.3793 41.0252 38.426 41.4759C37.4553 41.9092 36.2247 42.1606 34.734 42.2299L34.11 38.5379C34.9767 38.5032 35.7047 38.4166 36.294 38.2779C36.866 38.1219 37.2993 37.8966 37.594 37.6019C37.8713 37.2899 38.01 36.9086 38.01 36.4579C38.01 35.9032 37.8367 35.5306 37.49 35.3399C37.1433 35.1319 36.7447 35.0279 36.294 35.0279C35.41 35.0279 34.6733 35.2446 34.084 35.6779C33.4773 36.0939 32.8707 36.6486 32.264 37.3419L30.366 39.5259C29.7073 40.3059 28.962 40.9472 28.13 41.4499C27.298 41.9352 26.2753 42.1779 25.062 42.1779C23.3287 42.1779 22.0027 41.6752 21.084 40.6699C20.148 39.6472 19.68 38.2519 19.68 36.4839C19.68 35.4266 19.8533 34.5599 20.2 33.8839C20.5467 33.2079 21.0147 32.6879 21.604 32.3239C22.176 31.9426 22.8087 31.6826 23.502 31.5439C24.178 31.3879 24.854 31.2926 25.53 31.2579L26.076 34.9239C25.4347 34.9586 24.8713 35.0192 24.386 35.1059C23.9007 35.1752 23.5193 35.3312 23.242 35.5739C22.9647 35.7992 22.826 36.1459 22.826 36.6139C22.826 37.1166 23.0167 37.4892 23.398 37.7319C23.762 37.9746 24.1693 38.0959 24.62 38.0959C25.3653 38.0959 25.9807 37.9312 26.466 37.6019C26.934 37.2552 27.428 36.7872 27.948 36.1979L29.82 34.0659C30.5827 33.1819 31.458 32.4279 32.446 31.8039C33.4167 31.1626 34.6213 30.8419 36.06 30.8419C37.048 30.8419 37.9407 31.0672 38.738 31.5179C39.5353 31.9686 40.1593 32.6012 40.61 33.4159C41.0607 34.2132 41.286 35.1579 41.286 36.2499Z" fill="white"></path></svg>