<svg xmlns="http://www.w3.org/2000/svg" width="73" height="74" viewBox="0 0 73 74" fill="none"><path d="M1.2832 72.155L6.24492 53.9722C3.17949 48.6563 1.56836 42.6097 1.56836 36.4342C1.58262 17.0764 17.252 1.34375 36.5 1.34375C45.8389 1.34375 54.6217 4.99751 61.2088 11.6316C67.8102 18.2657 71.4459 27.0777 71.4316 36.4628C71.4174 55.8062 55.748 71.5532 36.5 71.5532H36.4857C30.64 71.5532 24.8941 70.0774 19.7898 67.2833L1.2832 72.155Z" fill="url(#paint0_linear_188_7830)"></path><path d="M0 73.4164L5.13281 54.5745C1.96758 49.0723 0.313672 42.8108 0.313672 36.406C0.313672 16.3605 16.5533 0.0546875 36.5 0.0546875C46.1811 0.0546875 55.2633 3.85173 62.0928 10.7151C68.9223 17.5927 72.6863 26.72 72.6863 36.4346C72.6721 56.4802 56.4467 72.7859 36.5 72.7859H36.4857C30.4262 72.7859 24.4807 71.2528 19.191 68.3585L0 73.4164ZM20.075 61.7817L21.1729 62.4408C25.7924 65.1919 31.082 66.6534 36.4857 66.6534H36.5C53.0818 66.6534 66.5697 53.0986 66.5697 36.4346C66.5697 28.3677 63.4473 20.7736 57.7727 15.0566C52.098 9.33953 44.5414 6.2016 36.5143 6.2016C19.9182 6.2016 6.43027 19.7563 6.43027 36.4203C6.43027 42.123 8.01289 47.6825 11.0213 52.4969L11.7342 53.6431L8.69727 64.7907L20.075 61.7817Z" fill="url(#paint1_linear_188_7830)"></path><path fill-rule="evenodd" clip-rule="evenodd" d="M27.318 21.137C26.6336 19.6182 25.9207 19.5895 25.2791 19.5609C24.7516 19.5322 24.1527 19.5466 23.5396 19.5466C22.9408 19.5466 21.957 19.7758 21.1301 20.6785C20.3031 21.5812 17.9648 23.7878 17.9648 28.2583C17.9648 32.7287 21.2014 37.0559 21.6576 37.6577C22.1139 38.2595 27.9168 47.7306 37.0988 51.3701C44.741 54.3934 46.2951 53.7916 47.949 53.6483C49.6029 53.505 53.2957 51.456 54.0514 49.3354C54.807 47.2148 54.807 45.3951 54.5789 45.0226C54.3508 44.65 53.752 44.4208 52.8395 43.9622C51.9412 43.5037 47.4928 41.3115 46.6658 41.0106C45.8389 40.7097 45.24 40.5521 44.627 41.4691C44.0281 42.3718 42.2887 44.4208 41.7611 45.0226C41.2336 45.6243 40.7061 45.7103 39.8078 45.2518C38.9096 44.7933 35.9867 43.8333 32.5363 40.7383C29.8416 38.3312 28.0309 35.3508 27.5033 34.4481C26.9758 33.5455 27.4463 33.044 27.9025 32.5998C28.3018 32.1986 28.8008 31.5395 29.257 31.0093C29.7133 30.4792 29.8559 30.1066 30.1553 29.4905C30.4547 28.8887 30.3121 28.3586 30.084 27.9C29.8844 27.4272 28.1307 22.9424 27.318 21.137Z" fill="white"></path><defs><linearGradient id="paint0_linear_188_7830" x1="36.3571" y1="72.1609" x2="36.3571" y2="1.33888" gradientUnits="userSpaceOnUse"><stop stop-color="#20B038"></stop><stop offset="1" stop-color="#60D66A"></stop></linearGradient><linearGradient id="paint1_linear_188_7830" x1="36.3432" y1="73.4164" x2="36.3432" y2="0.0546875" gradientUnits="userSpaceOnUse"><stop stop-color="#F9F9F9"></stop><stop offset="1" stop-color="white"></stop></linearGradient></defs></svg>