<svg xmlns="http://www.w3.org/2000/svg" width="300" height="300" viewBox="0 0 300 300" fill="none"><circle cx="148.295" cy="147.808" r="147.321" fill="white"></circle><g clip-path="url(#clip0_536_3590)"><path d="M299.975 142.488V157.724C299.85 158.165 299.766 158.617 299.725 159.074C299.568 164.274 299.02 169.455 298.088 174.573C295.805 188.438 291.554 201.906 285.464 214.57C273.844 238.875 255.896 259.605 233.504 274.584C211.111 289.563 185.1 298.238 158.199 299.7C157.7 299.754 157.203 299.833 156.712 299.937H143.526C143.076 299.862 142.626 299.737 142.163 299.7C139.888 299.513 137.614 299.388 135.339 299.175C127.744 298.474 120.22 297.153 112.841 295.225C91.9928 289.825 72.5468 280.012 55.8164 266.452C39.086 252.891 25.4608 235.898 15.8612 216.619C6.74954 198.375 1.51505 178.441 0.487459 158.074C0.487459 156.824 0.162486 155.662 0 154.45V145.813C0.0999917 145.313 0.249979 144.825 0.299975 144.338C0.624948 140.501 0.874927 136.651 1.27489 132.826C2.23982 124.079 4.00967 115.439 6.56195 107.016C14.6191 80.1472 30.0496 56.0763 51.1008 37.5371C72.152 18.998 97.9803 6.73376 125.652 2.13732C131.789 1.11675 137.984 0.482222 144.2 0.23748C144.743 0.195108 145.281 0.115763 145.813 0L154.45 0C154.95 0.0749937 155.437 0.187484 155.937 0.23748C160.149 0.587451 164.374 0.83743 168.586 1.29989C176.684 2.23243 184.682 3.88892 192.484 6.24948C214.447 12.7551 234.635 24.1865 251.512 39.6732C268.389 55.1598 281.51 74.2934 289.876 95.617C295.659 110.145 298.996 125.532 299.75 141.151C299.791 141.602 299.866 142.049 299.975 142.488ZM94.8046 157.974C95.1581 158.359 95.4721 158.777 95.742 159.224C96.7527 161.127 97.6663 163.079 98.4793 165.074C100.268 170.097 101.468 175.31 102.054 180.61C102.397 182.998 102.56 185.409 102.541 187.822C102.404 189.777 102.996 191.715 104.204 193.259C107.073 197.033 109.639 201.029 111.878 205.208C115.125 210.662 118.01 216.324 120.515 222.156C121.069 223.634 122.008 224.936 123.234 225.93C124.46 226.923 125.929 227.57 127.489 227.806C128.613 228.026 129.758 228.11 130.902 228.056C133.017 227.927 135.13 228.358 137.026 229.306C138.849 230.22 140.831 230.776 142.863 230.943C146.113 231.206 149.363 231.506 152.612 231.606C160.612 231.856 168.611 231.943 176.61 231.606C179.025 231.537 181.411 231.051 183.66 230.168C187.667 228.522 191.293 226.067 194.309 222.956C195.709 221.557 196.909 219.957 198.221 218.457C198.583 218.044 198.971 217.607 199.608 217.807C200.246 218.007 200.258 218.594 200.108 219.369C200.067 219.532 200.013 219.691 199.946 219.844C199.521 220.957 199.108 222.056 198.696 223.156C198.071 224.741 197.097 226.163 195.846 227.319C195.212 227.934 194.658 228.627 194.196 229.381C193.949 229.78 193.802 230.232 193.767 230.7C193.732 231.168 193.811 231.637 193.996 232.068C194.045 232.277 194.136 232.474 194.265 232.647C194.393 232.819 194.555 232.963 194.742 233.07C194.929 233.177 195.135 233.244 195.349 233.267C195.562 233.291 195.779 233.27 195.984 233.206C196.759 233.018 197.49 232.678 198.133 232.206C200.905 229.993 203.42 227.478 205.633 224.706C208.283 221.551 210.089 217.775 210.882 213.732C211.772 209.619 212.308 205.438 212.482 201.233C212.482 200.771 212.57 200.308 212.607 199.846C213.436 206.547 213.217 213.336 211.957 219.969C211.282 223.581 210.407 227.156 209.683 230.768C209.273 232.111 209.23 233.54 209.558 234.905C209.695 235.305 210.02 235.843 210.345 235.918C210.67 235.993 211.17 235.605 211.482 235.305C211.801 234.966 212.063 234.578 212.257 234.155C212.682 233.293 213.12 232.418 213.507 231.506C215.803 225.438 217.071 219.03 217.257 212.545C217.574 203.235 216.811 193.919 214.982 184.785C214.763 184.131 214.79 183.42 215.057 182.785C215.882 182.897 216.207 183.522 216.557 184.035C217.763 185.931 218.555 188.061 218.882 190.284C219.307 192.996 219.544 195.746 219.919 198.458C220.132 200.008 220.419 201.546 220.757 203.083C220.869 203.621 220.994 204.42 221.694 204.42C222.394 204.42 222.481 203.621 222.556 203.071C222.797 201.694 222.951 200.304 223.019 198.908C223.152 191.409 223.244 183.91 223.294 176.41C223.307 174.337 223.628 172.278 224.244 170.298C224.943 168.117 225.981 166.058 227.319 164.199C227.737 163.665 228.044 163.052 228.222 162.398C228.401 161.743 228.446 161.059 228.356 160.387C228.261 159.775 228.326 159.15 228.545 158.572C228.764 157.993 229.13 157.482 229.606 157.087C230 156.735 230.305 156.294 230.494 155.8C230.683 155.307 230.752 154.775 230.693 154.25C230.618 153 230.568 151.75 230.531 150.5C230.381 148.639 230.667 146.769 231.368 145.038C231.806 143.921 232.65 143.01 233.731 142.488C234.197 142.226 234.739 142.129 235.267 142.213C235.796 142.297 236.28 142.557 236.643 142.951C236.455 143.213 236.243 143.463 236.068 143.751C235.432 144.692 234.864 145.678 234.368 146.7C233.218 149.363 233.668 151.187 235.943 152.95C237.075 153.765 238.266 154.496 239.505 155.137C240.53 155.712 241.642 156.149 242.667 156.737C243.578 157.204 244.357 157.894 244.931 158.741C245.506 159.589 245.858 160.567 245.954 161.587C246.174 163.276 246.006 164.993 245.465 166.608C244.924 168.223 244.023 169.695 242.83 170.911C242.078 171.662 241.129 172.187 240.092 172.423C239.783 172.451 239.483 172.541 239.208 172.687C238.934 172.833 238.692 173.032 238.496 173.273C238.301 173.515 238.155 173.793 238.069 174.091C237.982 174.389 237.956 174.702 237.993 175.01C237.818 178.385 237.63 181.772 237.48 185.16C237.405 186.467 237.405 187.777 237.48 189.084C237.445 190.007 237.697 190.918 238.2 191.693C238.704 192.467 239.435 193.066 240.292 193.409C243.605 194.659 246.842 194.659 249.742 192.221C251.124 191.027 252.298 189.613 253.216 188.034C253.366 187.797 253.554 187.559 253.854 187.134C253.707 189.4 253.201 191.627 252.354 193.734C251.78 195.294 250.808 196.677 249.534 197.745C248.26 198.812 246.728 199.528 245.092 199.821C242.714 200.523 240.161 200.328 237.918 199.271C237.379 198.999 236.784 198.858 236.18 198.858C235.577 198.858 234.982 198.999 234.443 199.271C234.425 199.608 234.425 199.946 234.443 200.283C234.568 204.345 234.655 208.408 234.855 212.47C235.16 218.73 234.901 225.005 234.08 231.218C233.831 233.143 233.568 235.08 233.343 237.005C233.17 237.663 233.245 238.362 233.556 238.968C267.053 208.67 283.639 155.55 263.666 105.229C253.358 79.1811 234.401 57.4744 209.977 43.7553C185.554 30.0362 157.153 25.1407 129.546 29.8912C101.939 34.6416 76.8081 48.7487 58.3752 69.8423C39.9422 90.9359 29.3304 117.731 28.3226 145.725C27.639 163.085 30.7308 180.386 37.3844 196.434C44.3812 213.455 55.146 228.668 68.8693 240.93C74.6563 246.142 84.2555 253.179 86.4928 253.829C86.4928 253.429 86.4928 253.066 86.4928 252.691C86.4053 251.442 86.3053 250.192 86.2053 249.029C85.9803 246.367 85.7803 243.717 85.5179 241.055C85.4753 240.599 85.3016 240.165 85.0179 239.805C82.9108 237.422 81.2206 234.701 80.0183 231.756C78.3044 227.537 76.9538 223.18 75.9812 218.732C75.3562 216.144 74.7313 213.532 73.9563 211.007C73.0439 208.195 70.9191 207.158 68.0568 207.883C66.9944 208.145 65.9445 208.495 64.9071 208.845C63.3295 209.406 61.5958 209.335 60.07 208.645C58.6826 208.02 57.3327 207.308 55.9578 206.67C54.5398 206.026 53.3428 204.978 52.516 203.658C51.6892 202.337 51.2691 200.803 51.3082 199.246C51.3257 199.005 51.3676 198.766 51.4332 198.533C51.9291 199.166 52.459 199.771 53.0206 200.346C53.5455 200.846 53.983 200.758 54.408 200.171C54.698 199.753 54.9411 199.304 55.1329 198.833C55.1902 198.581 55.2971 198.343 55.4473 198.133C55.5975 197.922 55.7881 197.744 56.0079 197.608C56.2278 197.472 56.4725 197.381 56.7278 197.34C56.9831 197.299 57.244 197.31 57.4952 197.371C58.1495 197.498 58.8274 197.4 59.4194 197.094C60.0113 196.788 60.4828 196.291 60.7574 195.684C62.411 192.829 63.025 189.49 62.4948 186.234C62.3073 184.985 61.6449 184.622 60.395 184.985C59.0287 185.334 57.8186 186.13 56.9578 187.247C56.1078 188.397 55.3579 189.634 54.5829 190.834C54.383 191.147 54.2205 191.472 53.9205 191.996C53.6955 191.184 53.4955 190.597 53.383 189.997C52.5996 185.917 52.2809 181.762 52.4331 177.61C52.5139 175.541 52.7521 173.481 53.1456 171.448C53.3212 170.482 53.7309 169.573 54.3388 168.802C54.9467 168.031 55.7343 167.42 56.6328 167.024C57.005 166.827 57.415 166.712 57.8353 166.686C58.2555 166.66 58.6765 166.724 59.0701 166.874C59.9465 167.181 60.8575 167.378 61.7824 167.461C63.7697 167.649 64.5946 166.999 64.9946 165.061C65.0378 164.851 65.0628 164.638 65.0696 164.424C65.0696 162.361 64.9946 160.287 64.9071 158.174C64.7946 155 64.5821 151.837 64.5196 148.663C64.5104 147.641 64.7083 146.628 65.1015 145.685C65.4946 144.742 66.0748 143.888 66.8069 143.176C67.2444 142.726 67.6819 142.263 68.1693 141.838C70.1464 140.083 71.7638 137.961 72.9314 135.589C73.9313 133.626 74.8438 131.627 75.8062 129.639C76.0687 129.102 76.2186 128.389 77.0561 128.202C77.0972 128.617 77.0972 129.036 77.0561 129.452C76.8943 130.364 76.6474 131.26 76.3186 132.126C75.1144 134.894 74.9677 138.007 75.9062 140.876C76.6015 142.919 76.9356 145.067 76.8936 147.225C76.8421 147.842 76.9127 148.464 77.1014 149.053C77.2902 149.643 77.5933 150.19 77.9935 150.662C79.6411 152.802 81.0927 155.086 82.3306 157.487C83.3181 159.174 84.293 160.849 85.3054 162.486C85.5877 162.925 85.901 163.343 86.2428 163.736C86.4553 163.499 86.5803 163.411 86.6053 163.311C87.1552 160.112 86.5178 156.912 86.4803 153.712C86.6154 154.063 86.7282 154.422 86.8178 154.787C87.5927 158.387 88.3635 161.986 89.1301 165.586C89.8307 169.316 90.9589 172.952 92.4923 176.423C93.0437 177.565 93.6528 178.679 94.3171 179.76C94.5796 180.222 94.8796 180.722 95.567 180.747C95.7772 180.536 95.9378 180.281 96.0373 180C96.1367 179.719 96.1725 179.419 96.142 179.123C96.142 175.698 96.242 172.273 96.217 168.848C96.1521 166.601 95.7821 164.372 95.1171 162.224C94.8921 161.449 94.6296 160.687 94.4546 159.912C94.3104 159.586 94.2726 159.224 94.3467 158.876C94.4208 158.528 94.6029 158.213 94.8671 157.974" fill="#E5202E"></path><path d="M143.488 88.8925C141.343 91.9768 138.724 94.702 135.726 96.9668C135.414 97.1793 135.114 97.4293 134.814 97.6668C134.07 98.2041 133.468 98.9158 133.063 99.7395C132.658 100.563 132.461 101.474 132.489 102.391C132.555 103.093 132.435 103.8 132.141 104.441C131.847 105.082 131.389 105.633 130.814 106.041C130.026 106.619 129.38 107.371 128.927 108.238C128.475 109.104 128.226 110.063 128.202 111.041C128.114 111.803 128.002 112.553 127.902 113.315C127.601 115.608 126.445 117.702 124.665 119.177C123.902 119.84 123.04 120.427 122.24 121.027C120.99 121.99 120.99 122.99 122.24 123.927C122.973 124.42 123.63 125.018 124.19 125.702C124.439 126.077 124.811 126.354 125.241 126.486C125.672 126.619 126.135 126.598 126.552 126.427C127.047 126.294 127.485 126.004 127.801 125.601C128.116 125.197 128.292 124.702 128.302 124.19C128.302 123.427 128.302 122.665 128.302 121.902C128.302 120.015 128.702 119.515 130.539 119.14C131.789 118.902 132.964 118.715 134.126 118.378C135.229 118.033 136.167 117.298 136.765 116.311C137.364 115.324 137.581 114.152 137.376 113.015C137.336 112.572 137.186 112.145 136.94 111.774C136.693 111.403 136.358 111.099 135.964 110.891C135.089 110.428 135.014 110.016 135.564 109.166C135.811 108.822 136.087 108.5 136.389 108.203C137.639 106.953 138.889 105.704 140.138 104.366C141.013 103.391 141.763 102.316 142.638 101.279C142.825 101.001 143.048 100.749 143.301 100.529C143.434 100.424 143.592 100.356 143.76 100.332C143.928 100.308 144.1 100.328 144.257 100.392C144.414 100.455 144.552 100.559 144.656 100.693C144.761 100.827 144.828 100.986 144.851 101.154C144.951 102.166 145.226 102.991 146.313 103.266C146.886 103.431 147.492 103.446 148.073 103.308C148.653 103.17 149.188 102.884 149.625 102.479C150.025 102.047 150.388 101.583 150.713 101.091C151.188 100.442 151.706 99.8237 152.262 99.2416C152.449 99.0065 152.682 98.8126 152.948 98.6721C153.213 98.5316 153.505 98.4475 153.804 98.4252C154.103 98.4029 154.404 98.4428 154.687 98.5424C154.971 98.6421 155.23 98.7993 155.45 99.0042C156.112 99.4541 156.7 99.9916 157.375 100.442C158.624 101.316 158.974 101.304 160.212 100.442C160.416 100.288 160.629 100.147 160.849 100.017C162.262 99.2666 163.162 99.5666 163.786 101.041C164.111 101.816 164.336 102.641 164.674 103.416C164.736 103.678 164.852 103.923 165.015 104.137C165.178 104.351 165.384 104.528 165.619 104.658C165.854 104.787 166.114 104.866 166.382 104.889C166.65 104.912 166.92 104.879 167.174 104.791C167.724 104.704 168.261 104.566 168.799 104.504C170.048 104.391 170.686 104.979 170.448 106.116C169.798 109.316 171.698 111.216 173.836 112.978C174.223 113.242 174.66 113.423 175.12 113.512C175.58 113.6 176.053 113.593 176.51 113.49C177.09 113.397 177.681 113.397 178.26 113.49C178.985 113.653 179.173 114.253 178.71 114.853C178.408 115.202 178.064 115.513 177.685 115.778C177.138 116.152 176.733 116.699 176.533 117.331C176.334 117.964 176.352 118.644 176.585 119.265C176.714 119.708 176.907 120.129 177.16 120.515C178.236 122.054 179.785 123.2 181.572 123.777C181.94 123.925 182.337 123.98 182.73 123.937C183.124 123.895 183.501 123.757 183.828 123.534C184.155 123.312 184.423 123.013 184.607 122.663C184.791 122.313 184.887 121.923 184.885 121.527C185.004 120.464 184.743 119.392 184.147 118.503C183.207 117.052 182.194 115.65 181.11 114.303C180.84 113.977 180.658 113.589 180.579 113.173C180.5 112.758 180.528 112.33 180.66 111.928C180.9 110.866 180.927 109.766 180.738 108.693C180.549 107.62 180.149 106.595 179.56 105.679C179.041 104.802 178.456 103.967 177.81 103.179C176.973 102.219 176.313 101.119 175.86 99.9291C175.102 97.8409 173.615 96.0967 171.673 95.017C168.724 93.2921 165.811 91.4673 162.924 89.6799C162.553 89.4757 162.222 89.2045 161.949 88.88C162.111 88.861 162.275 88.861 162.437 88.88C166.186 90.2924 169.936 91.6923 173.686 93.1296C175.428 93.7875 177.02 94.791 178.364 96.0798C179.709 97.3686 180.779 98.916 181.51 100.629C183.872 105.791 185.947 111.066 187.847 116.403C189.622 121.402 191.484 126.327 192.847 131.401C195.126 140.456 194.906 149.96 192.209 158.899C190.799 163.576 188.312 167.857 184.947 171.398C184.745 171.615 184.477 171.76 184.185 171.811C184.335 171.536 184.497 171.248 184.622 170.961C185.36 169.211 186.197 167.498 186.81 165.699C187.547 163.549 186.81 162.674 184.585 162.636C184.418 162.624 184.251 162.624 184.085 162.636C180.623 163.261 177.273 162.636 173.886 161.986C171.847 161.612 169.783 161.399 167.711 161.349C166 161.236 164.298 161.673 162.854 162.598C161.41 163.522 160.3 164.885 159.687 166.486C159.147 167.864 158.729 169.285 158.437 170.736C158.274 171.398 158.299 172.161 157.537 172.411C157.169 172.523 156.778 172.53 156.406 172.431C156.035 172.331 155.699 172.129 155.437 171.848C153.44 170.063 151.108 168.695 148.575 167.823C145.07 166.515 141.293 166.107 137.589 166.636C136.673 166.777 135.778 167.033 134.926 167.398C134.008 167.757 133.229 168.402 132.705 169.236C132.181 170.071 131.938 171.053 132.014 172.036C132.014 172.198 132.014 172.361 132.014 172.536C132.014 172.711 132.014 172.611 131.864 172.761C131.514 172.648 131.127 172.561 130.739 172.411C129.059 171.928 127.517 171.054 126.24 169.861C125.198 168.806 124.264 167.651 123.452 166.411C119.118 159.408 116.335 151.557 115.291 143.388C115.212 142.8 115.17 142.207 115.166 141.613C115.166 135.651 115.291 129.677 115.328 123.715C115.328 115.165 118.603 107.828 123.852 101.216C126.728 97.4854 130.446 94.4874 134.701 92.4672C137.314 91.2173 139.988 90.2299 142.651 89.1175C142.913 89.0175 143.201 88.9675 143.476 88.8925" fill="#E5202E"></path><path d="M194.984 202.608C192.547 203.133 190.172 203.721 187.759 204.145C185.647 204.52 183.497 204.708 181.347 204.983H180.723C178.498 205.308 178.11 205.708 177.748 207.895C177.631 208.745 177.435 209.582 177.16 210.395C176.723 211.645 176.098 211.832 175.085 210.982C173.464 209.686 171.916 208.3 170.448 206.833C169.687 206.038 168.761 205.418 167.736 205.016C166.711 204.615 165.61 204.441 164.511 204.508L154.1 204.645H148.513C148.176 204.608 147.837 204.608 147.5 204.645C145.975 204.97 145.575 206.095 146.625 207.22C147.288 207.92 148.075 208.47 148.8 209.145L149.563 209.795C149.15 210.62 148.413 210.607 147.775 210.632C146.425 210.632 145.063 210.632 143.713 210.632C140.286 210.535 136.874 210.142 133.514 209.458C131.474 209.032 129.604 208.015 128.139 206.533C125.045 203.435 122.649 199.71 121.115 195.609C120.424 194.006 120.253 192.227 120.628 190.522C120.769 189.834 121.104 189.202 121.594 188.699C122.083 188.196 122.707 187.844 123.39 187.684C124.349 187.404 125.361 187.357 126.342 187.548C127.323 187.74 128.244 188.164 129.027 188.784C129.902 189.447 130.739 190.172 131.614 190.834C131.974 191.146 132.402 191.369 132.864 191.484C133.063 191.513 133.266 191.498 133.458 191.44C133.65 191.382 133.827 191.281 133.976 191.147C134.066 190.97 134.113 190.776 134.113 190.578C134.113 190.38 134.066 190.185 133.976 190.009C133.586 189.409 133.142 188.844 132.652 188.322C131.402 186.859 130.064 185.41 128.802 183.935C128.5 183.487 128.237 183.014 128.014 182.522C128.563 182.517 129.11 182.588 129.639 182.735C133.727 184.492 138.012 185.751 142.401 186.484C146.825 187.409 151.287 188.172 155.75 188.897C157.597 189.147 159.46 189.272 161.324 189.272C167.12 189.31 172.912 189.009 178.673 188.372C178.983 188.313 179.302 188.319 179.61 188.39C179.918 188.461 180.207 188.595 180.46 188.784C181.797 189.884 183.185 190.947 184.41 192.146C185.985 193.684 187.422 195.359 188.947 196.946C190.286 198.423 191.878 199.65 193.646 200.571C194.334 200.921 195.121 201.296 194.996 202.558" fill="#E5202E"></path><path d="M88.9301 100.892C88.2551 100.892 87.8551 100.892 87.4427 100.892C87.1256 100.858 86.8062 100.929 86.5332 101.094C86.2602 101.259 86.0485 101.508 85.9303 101.804C84.4679 104.754 83.0056 107.704 81.5057 110.641C80.9307 111.766 80.2558 112.866 79.6058 113.941C79.2747 114.407 78.9114 114.85 78.5184 115.266C77.856 114.991 77.656 114.666 77.9435 114.128L78.3559 113.341C79.8058 110.478 81.2807 107.616 82.7056 104.729C84.8005 100.32 85.95 95.522 86.0803 90.6426C86.0941 89.2433 86.4872 87.874 87.2177 86.6804C88.3176 84.968 89.4675 83.3057 90.6924 81.6808C91.534 80.6178 92.1468 79.3922 92.4923 78.0811C92.8546 76.6799 93.5938 75.4047 94.6296 74.3939C97.2363 71.6805 100.678 69.9201 104.404 69.3943C106.205 69.1322 108.021 68.982 109.841 68.9444C111.281 68.946 112.703 68.6257 114.003 68.007C115.828 67.1195 117.615 66.1571 119.403 65.1947C122.109 63.6732 125.148 62.8405 128.252 62.7699C128.585 62.7508 128.919 62.7508 129.252 62.7699C129.327 62.7699 129.389 62.8574 129.602 63.0074C129.352 63.3573 129.102 63.7198 128.839 64.0573C127.889 65.3072 126.827 66.4696 125.977 67.807C124.808 69.4988 124.329 71.5735 124.64 73.6065C124.672 73.8981 124.743 74.1839 124.852 74.4564C124.897 74.6228 124.98 74.7762 125.096 74.9039C125.212 75.0317 125.356 75.1301 125.517 75.1912C125.678 75.2522 125.851 75.2741 126.023 75.255C126.194 75.2359 126.358 75.1764 126.502 75.0814C126.975 74.8093 127.397 74.4584 127.752 74.044C129.977 71.6067 132.164 69.1319 134.376 66.6821C135.426 65.5197 136.514 64.4073 137.576 63.2574C138.792 61.9371 140.363 60.9954 142.101 60.5451C143.547 60.2234 144.909 59.6017 146.1 58.7202C146.538 58.3828 147.088 58.0078 147.763 58.5952C147.625 58.9452 147.5 59.2827 147.35 59.6202C146.775 61.0325 146.1 62.4074 145.613 63.8448C145.435 64.1555 145.341 64.5072 145.34 64.8653C145.339 65.2234 145.432 65.5755 145.608 65.887C145.785 66.1986 146.039 66.4587 146.347 66.642C146.655 66.8252 147.005 66.9252 147.363 66.932C149.75 67.257 152.162 67.3945 154.562 67.5445C155.064 67.5645 155.563 67.447 156.003 67.2048C156.444 66.9625 156.81 66.6046 157.062 66.1696C157.468 65.5251 157.914 64.9072 158.399 64.3198C158.531 64.1099 158.707 63.9314 158.915 63.7967C159.122 63.6619 159.357 63.5742 159.602 63.5397C159.848 63.5052 160.097 63.5247 160.334 63.5968C160.571 63.6689 160.79 63.792 160.974 63.9573C161.555 64.3789 162.114 64.8294 162.649 65.3072C164.311 66.7571 165.836 67.0445 167.649 65.7196C167.979 65.53 168.326 65.371 168.686 65.2447C168.924 65.4304 169.087 65.696 169.144 65.9923C169.202 66.2887 169.15 66.5959 168.998 66.8571C168.791 67.4395 168.714 68.0602 168.773 68.6755C168.831 69.2909 169.023 69.886 169.336 70.4193C169.923 71.5317 170.673 72.5566 171.361 73.6315C171.772 74.1425 172.148 74.6812 172.486 75.2438C172.811 75.9188 172.636 76.3688 171.923 76.4937C170.403 76.9199 168.777 76.7547 167.374 76.0313C165.477 74.9005 163.33 74.2564 161.124 74.1564C159.256 74.0603 157.449 73.4552 155.899 72.4066C155.693 72.2612 155.476 72.1317 155.25 72.0191C155.108 71.9228 154.947 71.8596 154.778 71.8341C154.609 71.8087 154.436 71.8216 154.273 71.8721C154.11 71.9225 153.96 72.0091 153.835 72.1255C153.709 72.2418 153.612 72.3849 153.55 72.5441C153.35 72.919 153.312 73.3565 153.125 73.7315C152.676 74.7718 152.145 75.7748 151.537 76.7312C151.394 76.9584 151.205 77.1536 150.983 77.3044C150.761 77.4553 150.51 77.5586 150.246 77.6079C149.982 77.6572 149.71 77.6514 149.449 77.5909C149.187 77.5303 148.941 77.4164 148.725 77.2562C148.021 76.8889 147.344 76.4711 146.7 76.0063C146.029 75.4785 145.21 75.1723 144.357 75.1297C143.504 75.0872 142.659 75.3105 141.938 75.7688C141.451 76.0263 140.983 76.3187 140.538 76.6437C138.254 78.2731 135.582 79.2731 132.789 79.5435C131.239 79.7688 129.664 79.7688 128.114 79.5435C127.189 79.4186 126.252 79.4186 125.327 79.5435C123.99 79.7435 123.74 80.5309 124.565 81.5933C125.701 82.9153 127.085 84.0023 128.639 84.793C129.232 85.1124 129.789 85.4937 130.302 85.9305C130.989 86.5554 130.914 87.0179 130.152 87.5553C128.21 88.9135 126.26 90.2634 124.302 91.605C124.032 91.8005 123.71 91.9134 123.377 91.93C123.216 91.9173 123.06 91.8693 122.919 91.7893C122.779 91.7094 122.658 91.5995 122.565 91.4675C122.532 91.3172 122.536 91.1611 122.577 91.0128C122.619 90.8646 122.696 90.7289 122.802 90.6176C123.241 90.2169 123.709 89.8493 124.202 89.5177C124.826 89.1418 125.309 88.5707 125.575 87.8929C125.842 87.215 125.878 86.4682 125.677 85.768C125.434 85.0365 124.966 84.4006 124.34 83.9515C123.713 83.5025 122.961 83.2632 122.19 83.2682C121.009 83.3318 119.837 83.5076 118.69 83.7931C116.786 84.2555 114.783 84.0934 112.978 83.3307C112.211 82.986 111.417 82.7059 110.603 82.4932C109.694 82.3119 108.768 82.2239 107.841 82.2308C107.27 82.2424 106.706 82.3666 106.183 82.596C105.66 82.8255 105.187 83.1558 104.791 83.5682C104.062 84.3039 103.218 84.916 102.291 85.3805C100.116 86.3479 98.289 87.9572 97.0544 89.9926C96.3794 91.0175 95.8045 92.1174 95.242 93.1923C95.0626 93.5719 94.8449 93.9321 94.5921 94.2673C94.4886 94.3569 94.3666 94.4224 94.2347 94.4592C94.1029 94.4959 93.9645 94.5029 93.8297 94.4797C93.6797 94.4797 93.5047 94.0798 93.5172 93.8673C93.9046 87.2178 95.442 81.1059 101.592 77.2687C102.309 76.8107 103.052 76.3934 103.816 76.0188C104.01 75.882 104.229 75.7854 104.46 75.7345C104.692 75.6837 104.931 75.6797 105.164 75.7228C105.397 75.7659 105.619 75.8552 105.817 75.9855C106.015 76.1157 106.184 76.2843 106.316 76.4812C106.804 77.0052 107.339 77.4822 107.916 77.9061C108.102 78.0579 108.317 78.1684 108.549 78.2303C108.78 78.2922 109.023 78.304 109.259 78.265C109.496 78.2259 109.721 78.137 109.921 78.004C110.12 77.871 110.289 77.697 110.416 77.4937C110.993 76.7141 111.436 75.844 111.728 74.9189C111.838 74.6385 111.887 74.3377 111.871 74.037C111.854 73.7362 111.773 73.4425 111.633 73.1757C111.493 72.9089 111.298 72.6754 111.06 72.4909C110.822 72.3065 110.547 72.1754 110.253 72.1066C108.652 71.5295 106.925 71.3957 105.254 71.7191C102.964 72.0565 100.756 72.8151 98.7417 73.9565C96.1095 75.3101 94.1095 77.6375 93.1672 80.4434C92.8592 81.2759 92.4387 82.0623 91.9173 82.7807C90.9799 84.2431 90.055 85.718 88.9926 87.0929C88.0868 88.299 87.4788 89.7021 87.2181 91.1878C86.9575 92.6735 87.0516 94.1997 87.4927 95.6421C87.7927 96.892 88.1801 98.1419 88.5176 99.3043C88.6426 99.7418 88.7551 100.179 88.9551 100.892" fill="#E5202E"></path><path d="M103.529 66.0567C103.695 65.5826 103.9 65.1228 104.141 64.6818C104.469 64.1867 104.841 63.7223 105.253 63.2944C107.875 60.4686 110.763 57.9028 113.878 55.6326C114.806 55.0554 115.776 54.5458 116.777 54.1077C117.865 53.5452 118.977 53.0328 120.052 52.4328C122.364 51.1204 124.627 49.708 126.977 48.4457C128.347 47.7233 129.772 47.109 131.239 46.6083C132.889 46.0334 134.588 46.5333 136.238 46.6083C137.454 46.7453 138.678 46.7954 139.901 46.7583C140.996 46.6947 142.071 46.4365 143.075 45.9959C145.81 44.7348 148.756 43.9972 151.762 43.821C153.33 43.7289 154.898 43.9762 156.362 44.546C159.742 45.9012 163.27 46.8535 166.873 47.3832C168.64 47.6219 170.357 48.1409 171.96 48.9206C176.51 51.1579 181.035 53.4702 185.559 55.7575L185.997 56.0075C186.092 56.0575 186.175 56.1279 186.239 56.2138C186.304 56.2997 186.348 56.3989 186.37 56.5041C186.392 56.6094 186.389 56.7181 186.364 56.8225C186.338 56.9268 186.29 57.0241 186.222 57.1074C186.084 57.2699 185.609 57.2449 185.334 57.1074C185.021 56.984 184.723 56.8246 184.447 56.6325C180.76 54.7326 177.11 52.7453 173.36 50.9829C168.967 49.0685 164.288 47.8904 159.511 47.4957C158.709 47.4341 157.912 47.3214 157.124 47.1583C153.597 46.3455 149.921 46.4574 146.45 47.4832C141.335 48.8213 136.148 49.8687 130.914 50.6205C126.786 51.3755 122.825 52.8566 119.215 54.9951C115.4 57.0336 111.918 59.6426 108.891 62.732C107.816 63.8694 106.603 64.8693 105.441 65.9192C105.326 66.0559 105.184 66.1682 105.025 66.2493C104.866 66.3305 104.692 66.3789 104.514 66.3918C104.335 66.4046 104.156 66.3815 103.987 66.324C103.818 66.2664 103.662 66.1755 103.529 66.0567Z" fill="#E5202E"></path><path d="M212.695 85.3299C212.676 86.0548 212.605 86.7775 212.482 87.4922C212.422 87.66 212.322 87.8109 212.192 87.9326C212.061 88.0543 211.904 88.1433 211.732 88.1922C211.282 88.1922 211.207 87.7422 211.17 87.3547C211.107 86.5048 211.032 85.6674 210.97 84.8549C210.836 83.3731 210.356 81.9434 209.57 80.6803C206.745 75.8357 202.955 71.6238 198.433 68.3063C195.741 66.4449 192.651 65.2379 189.409 64.7816C186.151 64.2361 182.85 63.9893 179.547 64.0442C177.727 64.1153 175.906 63.9344 174.135 63.5067C173.487 63.333 172.861 63.0812 172.273 62.7568C171.871 62.5974 171.547 62.2876 171.37 61.8933C171.192 61.4989 171.176 61.0509 171.323 60.6444C171.551 60.1959 171.917 59.8325 172.367 59.6075C172.817 59.3825 173.327 59.3078 173.823 59.3946C174.268 59.5348 174.689 59.7413 175.073 60.007C176.963 61.2432 179.207 61.823 181.46 61.6569C183.827 61.5797 186.197 61.6339 188.559 61.8193C192.593 62.1069 196.467 63.5137 199.746 65.8815C203.054 68.2328 206.001 71.0539 208.495 74.2558C211.049 77.4139 212.502 81.3201 212.632 85.3799" fill="#E5202E"></path><path d="M200.583 81.6428C200.204 81.5052 199.836 81.338 199.483 81.1428C197.984 80.1179 196.459 79.118 195.034 78.0056C192.952 76.2542 190.4 75.1545 187.697 74.8433C185.702 74.6764 183.7 75.0612 181.91 75.9557C180.66 76.5682 180.185 76.5557 179.235 75.5308C177.985 74.1559 176.823 72.6935 175.635 71.2686C175.271 70.856 174.937 70.4173 174.636 69.9562C174.173 69.1688 174.473 68.7063 175.398 68.6188C175.758 68.5937 176.119 68.6542 176.452 68.7954C176.784 68.9366 177.078 69.1545 177.31 69.4313C177.639 69.846 178.101 70.1346 178.618 70.2485C179.135 70.3623 179.675 70.2944 180.148 70.0562C182.573 69.2996 185.144 69.1325 187.647 69.5688C189.032 69.8012 190.304 70.4766 191.272 71.4936C192.018 72.3615 192.961 73.0385 194.021 73.4684C194.716 73.777 195.338 74.2285 195.846 74.7933C197.559 76.4182 199.246 78.093 200.933 79.7929C201.033 79.8804 201.158 79.9679 201.196 80.0679C201.308 80.4054 201.546 80.8053 201.433 81.0678C201.321 81.3303 200.883 81.4803 200.558 81.6927" fill="#E5202E"></path></g><defs><clipPath id="clip0_536_3590"><rect width="300" height="300" fill="white"></rect></clipPath></defs></svg>