<svg xmlns="http://www.w3.org/2000/svg" width="92" height="93" viewBox="0 0 92 93" fill="none"><rect y="0.680176" width="92" height="92" rx="46" fill="#ED2838"></rect><path d="M46.6634 33.6965C43.1243 33.6965 39.7303 35.0689 37.2278 37.5118C34.7254 39.9547 33.3195 43.2679 33.3195 46.7227C33.3195 50.1774 34.7254 53.4906 37.2278 55.9335C39.7303 58.3764 43.1243 59.7488 46.6634 59.7488C50.2024 59.7488 53.5964 58.3764 56.0989 55.9335C58.6013 53.4906 60.0072 50.1774 60.0072 46.7227C60.0072 43.2679 58.6013 39.9547 56.0989 37.5118C53.5964 35.0689 50.2024 33.6965 46.6634 33.6965ZM46.6634 55.1823C44.3642 55.1823 42.1593 54.2907 40.5335 52.7037C38.9078 51.1167 37.9945 48.9642 37.9945 46.7198C37.9945 44.4755 38.9078 42.323 40.5335 40.736C42.1593 39.1489 44.3642 38.2574 46.6634 38.2574C48.9625 38.2574 51.1674 39.1489 52.7932 40.736C54.4189 42.323 55.3322 44.4755 55.3322 46.7198C55.3322 48.9642 54.4189 51.1167 52.7932 52.7037C51.1674 54.2907 48.9625 55.1823 46.6634 55.1823Z" fill="white"></path><path d="M60.5354 36.2545C62.2535 36.2545 63.6462 34.8949 63.6462 33.2177C63.6462 31.5405 62.2535 30.1809 60.5354 30.1809C58.8173 30.1809 57.4245 31.5405 57.4245 33.2177C57.4245 34.8949 58.8173 36.2545 60.5354 36.2545Z" fill="white"></path><path d="M71.2906 30.1299C70.6225 28.4458 69.6016 26.9165 68.2932 25.6397C66.9848 24.3629 65.4177 23.3669 63.6923 22.7154C61.6732 21.9755 59.5402 21.5755 57.384 21.5322C54.605 21.4139 53.7248 21.3801 46.6778 21.3801C39.6307 21.3801 38.7275 21.3801 35.9715 21.5322C33.817 21.5733 31.6855 21.9734 29.669 22.7154C27.9431 23.3662 26.3757 24.3619 25.0672 25.6388C23.7587 26.9156 22.738 28.4454 22.0708 30.1299C21.3127 32.1008 20.9038 34.1832 20.8616 36.2881C20.7375 38.9981 20.7 39.8573 20.7 46.7394C20.7 53.6187 20.7 54.4948 20.8616 57.1907C20.9049 59.2979 21.3118 61.3769 22.0708 63.3516C22.7399 65.0356 23.7615 66.5647 25.0703 67.8414C26.3792 69.1181 27.9464 70.1142 29.6719 70.7662C31.6845 71.5358 33.8169 71.9645 35.9773 72.0338C38.7563 72.1522 39.6365 72.1888 46.6835 72.1888C53.7306 72.1888 54.6339 72.1888 57.3898 72.0338C59.5458 71.991 61.6787 71.5919 63.6981 70.8535C65.4231 70.2005 66.9897 69.2036 68.2979 67.9265C69.6062 66.6494 70.6274 65.1201 71.2963 63.4361C72.0553 61.4642 72.4622 59.3852 72.5055 57.278C72.6296 54.568 72.6671 53.7088 72.6671 46.8267C72.6671 39.9446 72.6671 39.0713 72.5055 36.3754C72.4719 34.2408 72.0609 32.1279 71.2906 30.1299ZM67.7757 56.9822C67.7571 58.6057 67.4535 60.2141 66.8782 61.7375C66.4449 62.8329 65.7814 63.8277 64.9305 64.6578C64.0797 65.488 63.0602 66.135 61.9378 66.5575C60.3945 67.1165 58.7645 67.4128 57.1185 67.4336C54.377 67.5575 53.6036 67.5885 46.5739 67.5885C39.5384 67.5885 38.8198 67.5885 36.0264 67.4336C34.3813 67.4139 32.752 67.1175 31.21 66.5575C30.0837 66.1377 29.0601 65.4917 28.2056 64.6615C27.3511 63.8312 26.6846 62.835 26.2494 61.7375C25.6822 60.2305 25.3788 58.641 25.3519 57.0358C25.2278 54.3596 25.1989 53.6046 25.1989 46.7422C25.1989 39.877 25.1989 39.1755 25.3519 36.4458C25.3705 34.8232 25.6741 33.2158 26.2494 31.6934C27.1295 29.4707 28.9331 27.7213 31.21 26.8706C32.7527 26.3132 34.3816 26.0169 36.0264 25.9945C38.7707 25.8734 39.5413 25.8395 46.5739 25.8395C53.6065 25.8395 54.328 25.8395 57.1185 25.9945C58.7646 26.0138 60.3949 26.3102 61.9378 26.8706C63.0601 27.2939 64.0794 27.9416 64.9302 28.7722C65.781 29.6028 66.4446 30.5978 66.8782 31.6934C67.4454 33.2004 67.7488 34.7898 67.7757 36.3951C67.8998 39.0741 67.9315 39.8263 67.9315 46.6915C67.9315 53.5539 67.9315 54.2919 67.8074 56.9851H67.7757V56.9822Z" fill="white"></path></svg>