<svg xmlns="http://www.w3.org/2000/svg" width="1377" height="784" viewBox="0 0 1377 784" fill="none"><g clip-path="url(#clip0_588_5933)"><path d="M514.738 22.9048L492.156 28.6531L487.316 40.9123L482.067 37.7448L467.96 45.986L473.591 51.969L465.526 59.6823L443.764 64.1402L445.788 75.0209L458.282 77.6604L440.538 81.4731L446.99 96.4011L473.18 99.158L471.157 139.132L477.609 145.584L469.133 152.359V160.483H480.424L472.359 174.179L464.294 178.608L469.544 213.274L477.609 224.653L489.311 233.921L509.459 194.328L527.584 189.078L539.667 175.763L573.131 162.301L554.595 160.043L557.821 147.96L567.089 158.841L573.131 159.633V149.162L564.655 135.056L575.125 135.847L581.577 130.187L584.803 109.218L580.756 101.973L589.437 103.176L591.255 95.9319L584.803 91.386L616.243 49.3881L604.336 41.0589L578.292 57.688L589.496 40.9123L578.292 45.898L580.023 40.9123L560.813 42.8773L595.743 32.6124L586.886 25.3683L582.838 22.9634L560.813 25.3683L582.046 18.5936L558.672 13.2852L549.404 18.5936L539.726 16.9805L528.434 22.9634C528.434 22.9634 535.679 36.8063 534.476 37.7742C533.274 38.742 526 37.7742 526 37.7742L523.977 22.9634L519.137 34.1375L511.483 33.8442L514.738 22.9048Z" fill="#888183"></path><path d="M533.567 350.648L531.808 351.792L533.567 352.965L534.359 351.821L533.567 350.648Z" fill="#B8B3B5"></path><path d="M544.037 354.459H542.013V356.073H544.712L544.037 354.459Z" fill="#B8B3B5"></path><path d="M577.5 378.626H575.623V380.122L577.5 380.65V378.626Z" fill="#B8B3B5"></path><path d="M543.07 446.316L541.046 446.815L542.043 448.046L543.568 447.166L543.07 446.316Z" fill="#6B6365"></path><path d="M545.592 448.046V449.542H546.677V448.779L545.592 448.046Z" fill="#6B6365"></path><path d="M551.633 450.363L550.519 450.862L551.076 451.976H552.132L551.633 450.363Z" fill="#6B6365"></path><path d="M547.792 454.088L549.317 455.584V456.699H547.792V454.088Z" fill="#6B6365"></path><path d="M550.519 454.088H549.727L550.108 455.379H550.519V454.088Z" fill="#6B6365"></path><path d="M552.132 447.637L551.311 448.047V448.781H552.132V447.637Z" fill="#6B6365"></path><path d="M547.292 448.779V449.542H548.554L547.938 448.779H547.292Z" fill="#6B6365"></path><path d="M819.898 564.919H818.285V567.94H819.898V564.919Z" fill="#888183"></path><path d="M870.283 537.321H868.67V539.726H871.075L870.283 537.321Z" fill="#6B6365"></path><path d="M877.117 601.814H874.917V603.838L876.003 604.629L877.117 601.814Z" fill="#524D4F"></path><path d="M868.641 604.63H865.825V607.651H868.641V604.63Z" fill="#B8B3B5"></path><path d="M827.552 570.374H825.528V572.779H827.552V570.374Z" fill="#6B6365"></path><path d="M430.097 754.584L432.913 758.602L426.461 762.239H418.806L420.419 758.426L430.097 754.584Z" fill="#524D4F"></path><path d="M507.904 767.488L509.899 774.732L513.535 771.096L507.904 767.488Z" fill="#524D4F"></path><path d="M273.104 518.375V524.417H276.506L274.805 520.399L273.104 518.375Z" fill="#888183"></path><path d="M277.738 521.396L278.53 524.416H281.17L277.738 521.396Z" fill="#888183"></path><path d="M15.1039 429.482L20.3537 434.322L15.1039 437.548L13.9015 433.53L15.1039 429.482Z" fill="#A5A0A1"></path><path d="M2.40491 420.214H0V422.238H1.20245L2.40491 420.214Z" fill="#A5A0A1"></path><path d="M7.2441 422.238L5.22046 424.672L7.2441 426.285C8.47588 425.259 7.2441 422.238 7.2441 422.238Z" fill="#A5A0A1"></path><path d="M10.0886 424.642V427.487L13.9013 429.481L14.7225 427.076L10.0886 424.642Z" fill="#A5A0A1"></path><path d="M302.93 426.08L311.376 424.643L315.834 423.059L319.647 424.643L327.917 427.487L329.12 430.303L334.575 431.916L331.554 435.347H332.756L337.977 434.321L342.024 435.347L346.247 433.118L339.385 429.188L330.938 424.643H325.894L323.078 421.24H318.034L315.013 419.627L309.763 421.035L304.748 422.854L302.93 426.08Z" fill="#6B6365"></path><path d="M337.596 443.208L334.751 440.187L327.712 441.683L331.349 444.205H334.575L337.596 443.208Z" fill="#A5A0A1"></path><path d="M372.467 442.181V444.205H379.301L380.122 440.187L372.467 442.181Z" fill="#888183"></path><path d="M399.068 472.418H394.815V477.258H396.927L399.068 472.418Z" fill="#888183"></path><path d="M329.325 403.703L330.322 406.196L333.959 403.703V401.884L329.325 403.703Z" fill="#888183"></path><path d="M332.639 410.946L330.732 413.762L332.639 414.994V418.601L335.161 417.604L333.959 414.788L332.639 410.946Z" fill="#888183"></path><path d="M336.364 402.881L335.161 404.054V408.746L337.596 407.133L336.364 402.881Z" fill="#888183"></path><path d="M340.998 413.176V416.784H343.227L340.998 413.176Z" fill="#888183"></path><path d="M348.271 421.035H346.248V424.671H348.271V421.035Z" fill="#888183"></path><path d="M351.497 428.69H348.271L347.274 430.714H350.676L351.497 428.69Z" fill="#888183"></path><path d="M343.227 418.602H340.998L344.048 422.855L343.227 418.602Z" fill="#888183"></path><path d="M404.904 462.74H403.086L404.904 464.969L406.106 463.855L404.904 462.74Z" fill="#524D4F"></path><path d="M396.927 466.171H394.815V468.781H396.927V466.171Z" fill="#B8B3B5"></path><path d="M399.068 459.925L396.927 461.538L398.012 462.74L399.068 459.925Z" fill="#B8B3B5"></path><path d="M395.871 455.907L398.012 458.928L399.068 458.106L398.012 455.907H395.871Z" fill="#B8B3B5"></path><path d="M394.815 450.247V452.681L396.927 451.449L395.871 449.455L394.815 450.247Z" fill="#A5A0A1"></path><path d="M399.068 448.252L397.484 449.455L398.276 451.068L399.068 448.252Z" fill="#A5A0A1"></path><path d="M391.003 442.181L389.185 444.204L391.003 446.023V442.181Z" fill="#6B6365"></path><path d="M395.871 443.001L393.407 444.115L394.815 446.022L395.871 443.001Z" fill="#6B6365"></path><path d="M354.518 435.348L350.089 434.322L348.887 435.348L351.702 437.167L353.316 440.187H349.063H344.048L346.247 443.208H354.225L356.366 434.586L354.518 435.348Z" fill="#B8B3B5"></path><path d="M364.607 437.167L361.967 435.348L357.04 434.322L356.366 434.586L354.225 443.208H354.313L356.336 446.024L359.973 442.182H368.83L370.032 440.187L364.607 437.167Z" fill="#524D4F"></path><path d="M305.54 472.007L308.766 455.378L307.71 454.997L289.351 466.054L294.249 470.394L295.129 472.418H305.892L305.54 472.007Z" fill="#524D4F"></path><path d="M305.892 472.418H295.129L297.886 478.871L306.743 484.12L308.356 484.766L311.083 478.548L305.892 472.418Z" fill="#888183"></path><path d="M279.438 451.068L276.505 444.117L282.957 444.498L290.641 442.768L291.023 441.389L296.683 427.693L293.838 425.669L281.755 429.306L274.892 441.389L262.017 440.568L251.928 428.895L255.301 408.894L248.292 405.814L241.136 389.39L232.982 392.206L222.512 379.653H204.358L188.257 372.057L178.608 370.796L180.983 380.651L187.025 395.432H181.805L189.87 402.676L195.09 412.765L202.745 421.622L204.769 417.604L198.727 408.542L195.09 397.045L188.257 387.777V378.627L195.09 379.653L199.519 395.432L207.995 402.676L218.875 425.669L216.06 433.735L242.25 449.161L255.565 454.734L262.398 451.155L270.522 457.725L273.103 451.068H279.438Z" fill="#524D4F"></path><path d="M282.958 444.498L276.506 444.117L279.438 451.067H273.104L270.523 457.725L275.714 461.948L279.878 462.681L285.363 456.962L283.838 444.322L282.958 444.498Z" fill="#888183"></path><path d="M287.415 454.088L290.641 442.768L283.837 444.322L285.362 456.962L288.412 453.795L287.415 454.088Z" fill="#6B6365"></path><path d="M279.878 462.681L287.005 463.972L289.351 466.054L294.66 462.887L283.926 458.458L279.878 462.681Z" fill="#A5A0A1"></path><path d="M297.475 451.155L288.412 453.795L283.925 458.458L294.659 462.887L307.71 454.997L297.475 451.155Z" fill="#B8B3B5"></path><path d="M362.114 512.539L372.467 511.512L370.033 492.566L351.497 487.551L350.207 474.852L357.07 467.608L355.515 466.376L337.391 474.852L333.343 483.299L324.486 477.668L312.403 480.073L311.083 478.548L308.356 484.765L317.623 488.549L320.058 484.912L324.486 480.483L327.302 484.501L331.349 499.019L323.225 512.92L360.765 534.887L362.114 512.539Z" fill="#6B6365"></path><path d="M339.795 522.628L323.225 512.92L322.873 513.536L315.629 526.03L319.236 532.893L316.949 534.858L324.281 540.548L339.795 522.628Z" fill="#A5A0A1"></path><path d="M358.741 558.878L348.271 556.678L345.954 545.797L354.225 537.321H360.56L360.178 534.565L339.795 522.628L324.281 540.547L316.949 534.858L313.195 538.113L323.283 551.428L335.777 577.237L349.063 587.296L360.002 597.092L365.193 592.546V566.943L358.741 558.878Z" fill="#B8B3B5"></path><path d="M386.368 509.107L383.142 501.658L399.067 498.021L396.926 493.182L401.56 484.413L390.181 476.465L391.794 472.418H363.17L357.07 467.608L350.207 474.852L351.497 487.551L370.033 492.566L372.467 511.512L372.262 511.541L378.098 516.351L386.368 509.107Z" fill="#A5A0A1"></path><path d="M403.085 510.515L406.927 514.738L416.606 510.105L410.535 498.931L413.556 494.179H413.174L402.294 484.912L401.56 484.413L396.927 493.182L399.068 498.021L398.452 498.168L403.085 502.039V510.515Z" fill="#B8B3B5"></path><path d="M418.806 507.289L425.258 509.195L426.46 502.86L424.261 497.611L426.636 494.179H413.556L410.535 498.93L416.606 510.104L416.43 510.192L418.806 511.131V507.289Z" fill="#524D4F"></path><path d="M428.895 511.131L434.76 503.359L427.663 494.179H426.636L424.261 497.611L426.46 502.86L425.258 509.195L424.671 509.019L425.874 511.131H428.895Z" fill="#6B6365"></path><path d="M369.036 604.219L374.08 616.537L378.89 611.697H394.023L396.223 602.224L406.312 599.585L410.945 602.224L414.172 597.092L409.538 586.71L402.499 585.683L400.475 576.21L383.142 569.172L379.916 559.845L364.9 566.591L365.194 566.943V592.546L364.754 592.927L368.83 599.204L369.036 604.219Z" fill="#6B6365"></path><path d="M378.303 763.851L376.28 754.584L372.057 755.991L371.03 746.518L373.875 744.905L373.259 719.712L368.42 705.605L369.622 689.475L368.42 675.163L370.649 664.487L367.012 653.607L369.036 641.084L372.262 633.869L371.441 623.78L376.69 616.536L375.664 614.952L374.08 616.536L369.036 604.218L368.83 599.203L364.754 592.927L360.003 597.091L360.765 597.795L361.176 650.586L358.36 685.662L359.973 700.972L365.194 707.424L363.991 719.918L362.378 728.804L358.36 733.233L361.968 740.477L366.015 758.426L376.485 774.732L390.592 784H401.473L403.496 781.829L391.208 763.851H378.303Z" fill="#888183"></path><path d="M414.172 625.188V630.232L411.561 635.072H422.647L428.689 618.736L423.645 619.557L421.621 611.492L414.172 611.902L411.239 601.755L410.945 602.224L406.312 599.584L396.223 602.224L394.082 611.374L400.886 618.941L414.172 625.188Z" fill="#524D4F"></path><path d="M414.172 663.902L416.459 666.688L432.913 671.556L438.602 661.467L417.603 647.155L414.172 663.902Z" fill="#A5A0A1"></path><path d="M431.505 633.048V628.209L426.372 625.012L422.647 635.072H411.561L414.172 630.232V625.188L400.886 618.941L394.082 611.375L394.023 611.697H378.89L375.664 614.953L376.69 616.536L371.441 623.78L372.262 633.869L369.036 641.084L367.012 653.607L370.649 664.488L368.42 675.163L369.622 689.475L368.42 705.606L373.259 719.713L373.875 744.906L371.03 746.519L372.056 755.992L376.28 754.584L378.303 763.852H391.208L403.496 781.83L407.133 777.958L387.776 756.607L397.455 734.846L387.776 729.186L395.02 722.733L400.27 707.424L393.818 700.972L403.496 702.996V690.912L421.621 687.276L424.055 676.395L415.169 666.306L416.459 666.687L414.172 663.901L417.603 647.155L418.483 647.771L420.829 642.932L431.505 633.048Z" fill="#B8B3B5"></path><path d="M501.042 539.725L473.239 528.463L452.68 523.008L440.186 517.553L441.388 511.922L434.76 503.359L428.895 511.131H425.874L424.671 509.019L418.806 507.289V511.131L416.43 510.192L406.928 514.738L403.086 510.515V502.039L398.452 498.167L383.143 501.658L386.369 509.107L378.098 516.351L372.262 511.541L362.114 512.538L360.765 534.886L360.179 534.564L360.56 537.321H354.225L345.955 545.796L348.272 556.677L358.742 558.877L364.901 566.59L379.917 559.845L383.143 569.171L400.476 576.21L402.499 585.683L409.538 586.709L414.172 597.091L411.239 601.754L414.172 611.902L421.621 611.491L423.645 619.557L428.689 618.735L426.372 625.012L431.505 628.208V633.048L420.829 642.931L418.483 647.77L438.602 661.467L452.269 637.271V628.003L478.87 613.896L487.727 592.135V571.576L505.47 549.404L501.042 539.725Z" fill="#888183"></path><path d="M163.651 191.073L154.589 195.912L144.705 182.597L191.132 99.5106L190.662 99.1L184.21 91.504L168.49 81.8257H164.062L161.246 72.558L152.36 65.314L132.211 69.7425L112.855 81.0338L105.611 78.5996L100.361 85.0518L102.385 101.593L109.629 109.629L100.361 113.265L93.9087 110.45L98.3666 106.403L93.9087 103.177L74.9628 108.837L76.5758 123.56L82.6467 126.17L96.343 123.56L91.0932 135.438L72.9684 138.253L59.6535 149.134V165.264L67.7187 166.877L64.9032 178.961L75.3733 182.187H79.4206L63.2902 197.525L33.874 209.198L37.4814 211.221L50.7964 208.787L83.028 191.073L97.1348 184.21L92.2957 178.579L103.587 172.127L112.473 169.312L103.176 183.418L115.7 178.961L119.718 171.306L131.009 178.169L148.752 191.073L155.996 213.245L162.419 233.804L169.693 227.939L163.651 191.073Z" fill="#A5A0A1"></path><path d="M381.413 303.136L370.62 311.993L352.554 318.563L352.73 319.238L349.504 322.258L345.486 320.733L340.236 322.258L338.828 324.546L340.236 325.69L324.927 332.553L321.906 328.916L325.748 328.329L327.361 327.039L328.505 320.469H327.948L326.129 316.451L323.9 318.856C323.9 318.856 322.493 317.243 321.877 317.243C321.29 317.243 324.898 313.812 324.898 313.812L326.1 309.999L320.264 307.77L316.246 310.204L313.636 315.044L313.02 322.493L307.389 328.945L305.365 326.335L309.295 315.454L307.975 311.436L313.225 305.6H318.064H321.496H324.722L321.29 301.553L314.838 303.166L310.204 300.35L311.407 296.508L299.118 301.347L293.868 298.121L303.371 293.223L289.44 286.419L179.137 275.979L180.222 277.768L170.544 278.559L168.52 297.916L160.865 318.475V338.242L166.907 358.185L177.788 367.248L178.638 370.826L188.258 372.087L204.388 379.683H222.513L232.983 392.235L241.136 389.42L248.292 405.844L255.302 408.923L257.56 395.461L272.488 390.212L282.958 392.646L287.797 390.212L287.006 386.986L308.356 389.009L314.809 392.646L314.398 401.122L319.648 413.205L324.076 410.8L324.868 401.004L321.642 380.709L342.993 366.221L346.63 345.78L347.128 345.281L349.035 353.17L352.671 347.334L351.293 341.322L352.055 340.588L352.701 344.9L358.126 338.037L357.364 335.515L358.713 334.224L372.82 330.001L374.022 321.32L387.924 314.897V303.166H381.413V303.136Z" fill="#A5A0A1"></path><path d="M150.747 233.892L158.401 235.71L154.589 251.899L150.747 246.092V233.892Z" fill="#6B6365"></path><path d="M161.627 260.287L160.014 264.129L168.08 273.309L172.508 275.714C174.121 273.309 166.261 264.129 166.261 264.129L161.627 260.287Z" fill="#6B6365"></path><path d="M252.34 91.3875L259.994 102.796L278.53 89.4811L295.863 87.4575L293.047 73.3507L272.077 69.626L269.673 77.6326L252.34 91.3875Z" fill="#6B6365"></path><path d="M295.862 91.3867H282.166L272.488 99.1C272.488 99.1 271.696 101.593 272.488 102.795C273.279 103.998 284.014 104.819 284.014 104.819L269.672 107.576V113.295H282.782L287.826 121.771L269.701 116.14L267.678 121.771L274.13 127.02V136.699H285.832L299.528 129.044L303.165 138.722H314.046L311.23 131.478L318.885 134.294V128.252L314.456 116.961L320.498 99.1587L315.248 91.4454L306.391 111.33L308.004 96.8124L295.862 91.3867Z" fill="#6B6365"></path><path d="M349.063 91.3867C347.861 91.9146 338.183 95.5513 338.183 95.5513C338.183 95.5513 326.099 102.004 326.891 102.795C327.683 103.587 335.748 123.56 335.748 123.56L345.016 115.025L349.034 102.795V91.3867H349.063Z" fill="#6B6365"></path><path d="M371.646 99.0994L357.95 95.1401L349.063 110.039L351.498 115.025L357.129 107.546L360.355 112.062L371.646 99.0994Z" fill="#6B6365"></path><path d="M316.011 52.8196C314.809 52.409 297.476 66.1053 298.678 65.3134C299.881 64.5215 307.301 77.6312 307.301 77.6312L326.833 74.9917L332.112 77.6312L341.38 65.2254L332.904 65.3134L336.13 52.8196H330.499L325.25 67.3664L319.971 65.3134L316.011 52.8196Z" fill="#6B6365"></path><path d="M320.029 38.3022H312.404L291.434 47.5699L295.863 56.0164L314.809 49.3883L320.029 38.3022Z" fill="#6B6365"></path><path d="M341.409 38.3029L326.862 36.2793L328.505 47.16H336.189L341.409 38.3029Z" fill="#6B6365"></path><path d="M349.064 27.8027L347.451 38.3022L336.189 33.0525L349.064 27.8027Z" fill="#6B6365"></path><path d="M346.248 61.6172V73.759H353.111L349.064 83.672H355.516L366.397 65.2245L356.337 61.6172V69.6238L349.064 67.3362L346.248 61.6172Z" fill="#6B6365"></path><path d="M366.396 27.8027L357.95 41.7336H366.396L364.402 56.0164H371.646L377.306 38.3022L366.396 27.8027Z" fill="#6B6365"></path><path d="M386.575 49.388L380.504 41.7334L377.307 52.7901L381.941 56.0162L386.575 49.388Z" fill="#6B6365"></path><path d="M386.574 61.6188L375.283 56.0171V61.6188L381.94 65.3141L386.574 61.6188Z" fill="#6B6365"></path><path d="M370.034 61.6172V72.6446L377.307 74.5802L375.283 83.672L371.647 91.3853L380.914 97.1336L399.86 100.77L409.539 99.0986V87.4553L398.658 86.1942L380.914 81.1791L385.343 72.6446L377.307 67.3362L370.034 61.6172Z" fill="#6B6365"></path><path d="M370.033 81.181L366.397 91.3872L360.355 86.1961L365.194 77.6323L370.033 81.181Z" fill="#6B6365"></path><path d="M330.528 133.414L334.135 144.295L330.528 147.931L320.469 140.687L330.528 133.414Z" fill="#6B6365"></path><path d="M388.187 105.083H377.307L362.379 123.56L360.355 135.438L375.283 142.682L388.187 145.908L393.027 138.664L397.455 151.979L405.902 164.472L396.223 177.758L393.818 183.8L381.94 180.192L377.307 191.073H388.187L396.634 195.912L401.062 204.359L414.377 213.245L409.538 199.52L420.008 206.793L423.645 197.907L415.58 181.395L420.83 177.758L428.074 193.478L440.567 177.348L422.443 161.628L429.687 155.586L423.235 140.687L413.556 130.188L409.538 123.56H395.021L397.836 107.547L386.574 110.039L381.94 115.025L377.307 131.009L375.283 123.56L380.914 111.242L388.187 105.083Z" fill="#6B6365"></path><path d="M400.476 107.546V119.307H411.943L409.538 110.45L400.476 107.546Z" fill="#6B6365"></path><path d="M400.476 162.859L395.842 159.164L388.188 162.859L389.801 170.514L400.476 162.859Z" fill="#6B6365"></path><path d="M356.337 176.556L349.064 186.645L346.248 193.068L351.293 197.526L360.355 191.074L366.397 195.092L370.033 187.026L356.337 176.556Z" fill="#6B6365"></path><path d="M389.801 77.6316L400.476 81.1803L411.973 83.6732L423.264 77.6316L421.24 72.6458L433.734 67.3667L444.204 56.0461L440.568 49.3886H454.264L466.347 38.3026L484.501 33.0528C484.501 33.0528 484.912 26.6006 484.501 27.8031C484.09 29.0055 497.816 22.1721 497.816 22.1721L494.59 13.227L481.686 4.80982L462.74 0L437.341 4.42855L419.187 10.4701L417.574 24.9876L433.294 33.0528L431.271 36.2789L416.343 27.8031L413.938 13.227H409.509L398.218 25.3982L394.288 38.3026L400.447 41.9392H392.176L391.355 56.0461H400.417L406.166 58.8616L394.288 69.625L389.801 77.6316Z" fill="#6B6365"></path><path d="M320.029 89.0981L322.874 97.1341L330.118 93.1161V89.0981H320.029Z" fill="#6B6365"></path><path d="M437.957 280.143L433.529 281.756L428.074 289.762L420.625 300.907L422.648 302.608H427.077L434.115 301.493L437.957 302.608L431.505 306.743L434.526 308.562L440.568 302.608L438.955 306.127L443.588 308.532C443.588 308.532 447.225 300.672 446.609 300.672C445.993 300.672 442.181 299.265 442.181 299.265L443.383 291.405H433.646V288.179L437.957 280.143Z" fill="#6B6365"></path><path d="M435.347 265.771L427.692 260.287L418.835 249.904L423.675 246.062L414.817 221.779L406.752 236.179L397.074 232.542L398.687 217.614L392.645 213.186L389.83 205.531L373.318 202.1L369.3 221.749L362.848 232.044L367.687 244.039L363.669 251.107L352.378 254.832L352.788 273.279L344.313 275.684L340.676 267.413L345.104 253.013L333.813 251.107L317.683 235.68L308.415 238.818L311.23 221.779L305.981 221.28L326.95 195.09L337.831 187.436L351.527 180.191L356.777 173.329L371.294 169.281L375.723 163.65L374.11 154.793H378.744L381.765 149.162L370.884 142.71L366.866 149.573L356.777 162.067L355.164 153.591L356.366 142.71L349.504 150.775L347.891 142.71L351.909 133.032L349.885 116.901L338.212 123.559C338.212 123.559 332.963 134.234 334.194 135.026C335.397 135.818 340.647 141.478 340.647 141.478L335.397 151.157L328.153 159.222L324.516 146.317L316.861 151.567L303.546 148.341L299.91 137.871H290.231L286.213 149.573L282.196 142.71L269.702 143.121L264.452 138.282L270.904 137.079L268.881 127.401L251.958 115.699L244.714 118.925L238.673 115.699V101.181L204.007 111.27L191.161 99.5391L144.705 182.596L154.589 195.911L163.651 191.072L169.693 227.967L162.419 233.803L162.449 233.891L167.288 256.357L179.107 275.948L289.41 286.389L303.341 293.193L312.99 288.207L317.037 289.409L322.668 294.454L323.46 301.698L335.954 306.332L340.177 312.667L336.746 315.394L332.317 311.171L331.115 320.439H328.475L327.332 327.008L331.056 324.075L334.194 325.102L338.212 324.075L338.799 324.545L340.207 322.257L338.183 319.236L345.427 317.418L347.656 318.826L348.858 316.597L351.674 315.394L352.495 318.562L370.561 311.992L381.354 303.135H387.924V314.866L389.742 314.016L391.355 322.081L400.623 316.45L417.134 309.382L415.111 305.657L407.867 309.382L399.391 307.769L396.957 299.352L404.201 295.774L399.361 290.025L378.597 301.903L390.886 290.025L397.748 284.981L418.718 286.389L431.212 281.755L437.664 275.713L435.347 265.771ZM251.518 213.244L249.289 217.468L241.429 216.265V214.447L247.06 214.857L249.495 211.015L255.331 209.402L261.988 213.244H251.518ZM272.576 219.286C272.869 219.081 276.623 219.286 276.623 219.286L272.576 227.146C272.576 227.146 270.875 226.53 270.67 226.149C270.464 225.738 272.283 219.491 272.576 219.286ZM272.576 233.891V229.756L277.914 224.33L281.14 228.378L275.509 229.58V233.921L269.672 238.466L268.675 235.651L272.576 233.891ZM274.893 264.92L271.96 269.642L270.054 268.587L272.869 262.398L269.027 261.988V259.964H274.864V264.92H274.893ZM275.509 277.737C275.098 277.737 275.509 269.085 275.509 269.085L277.122 268.029L276.623 272.898L277.914 276.74C277.943 276.71 275.919 277.737 275.509 277.737ZM281.961 277.737V267.061H279.732L278.119 262.428L279.732 259.407H275.509L270.67 255.389L272.077 250.96H276.623L275.714 255.594L277.532 257.618L279.937 253.6L283.574 255.154V266.035L285.187 275.713L281.961 277.737ZM360.355 293.457L363.581 291.433L365.399 295.275L360.355 293.457ZM373.465 280.142L367.628 282.664V280.142L373.465 277.737V280.142ZM389.39 264.217L386.164 261.606L388.979 257.178L392.616 259.377L389.39 264.217ZM412.559 265.83H405.491L406.283 272.868L401.854 264.217L404.289 261.606L412.559 262.604V265.83Z" fill="#6B6365"></path><path d="M1171.66 229.083L1168.05 235.124L1171.66 246.621L1176.82 251.46L1181.05 269.291L1184.98 278.97L1187.7 286.507L1188.91 280.788L1193.13 283.809V279.556L1186.47 275.04L1184.68 263.25L1191.31 265.977L1185.88 257.795L1178.64 245.712L1176.5 239.963L1171.66 229.083Z" fill="#A5A0A1"></path><path d="M1206.44 292.87H1209.46L1215.5 286.506V282.576L1209.17 286.506L1206.44 292.87Z" fill="#A5A0A1"></path><path d="M1217.91 284.395L1221.55 278.647L1219.73 276.858L1216.71 284.395H1217.91Z" fill="#A5A0A1"></path><path d="M688.303 107.547L693.435 83.9669L698.861 82.1779L688.303 71.2679L683.757 67.3379L681.352 68.863L682.555 80.6529L678.918 70.6813L675.604 69.4788L668.653 74.2887L675.604 85.7853L677.715 89.1287L680.736 87.457L679.827 82.7645L687.98 87.457L677.715 91.2403L681.939 100.303L688.303 107.547Z" fill="#A5A0A1"></path><path d="M700.679 83.6733H696.163L698.421 88.8058L698.861 97.5749L704.023 93.9675V99.0999L709.536 91.3866L702.849 90.0082V86.4009L698.861 87.4567L700.679 83.6733Z" fill="#A5A0A1"></path><path d="M696.162 61.6182H690.092L687.071 67.3371L691.617 71.2671L697.365 69.7714L692.233 73.0855L697.365 76.1063L702.849 77.6313L709.536 74.6105L710.915 64.639L702.849 61.6182L698.978 65.8414L696.162 64.639V61.6182Z" fill="#A5A0A1"></path><path d="M752.385 53.143L759.424 55.8705L760.538 49.389H763.647L761.74 45.8989H758.016L752.385 53.143Z" fill="#A5A0A1"></path><path d="M761.447 59.1846L765.67 61.6188L767.899 55.8705L771.712 50.8847L766.579 45.8989L763.646 50.8847L761.447 59.1846Z" fill="#A5A0A1"></path><path d="M776.551 55.8707L782.006 53.7591L786.229 55.8707L789.25 54.8149L792.271 50.8849L787.138 48.0107L782.915 50.8849L775.348 49.3892L776.551 55.8707Z" fill="#A5A0A1"></path><path d="M795.908 41.0605L790.482 43.1722L792.271 50.8855L797.433 48.0113L793.943 44.6679L797.433 43.1722L795.908 41.0605Z" fill="#A5A0A1"></path><path d="M800.131 32.584H795.907V37.7164L800.131 42.8782L802.858 37.7164L800.131 32.584Z" fill="#A5A0A1"></path><path d="M783.824 33.7856H778.985V37.7156L776.257 41.059V45.8982L780.041 48.0098H783.824L787.138 42.8774L781.712 37.7156L783.824 33.7856Z" fill="#A5A0A1"></path><path d="M795.908 53.7593L793.943 51.9409L790.482 55.8709L793.18 57.6892L795.908 53.7593Z" fill="#A5A0A1"></path><path d="M771.712 57.6895H769.014L771.712 61.6194L775.349 59.6544L771.712 57.6895Z" fill="#A5A0A1"></path><path d="M783.824 28.6528H778.985L781.39 32.5828H783.824V28.6528Z" fill="#A5A0A1"></path><path d="M875.123 13.2271L870.284 23.2279L872.689 30.6186L882.074 32.5836L887.822 24.7237L875.123 13.2271Z" fill="#A5A0A1"></path><path d="M891.752 25.3394L884.479 33.7859V38.9476L891.752 41.9684L902.633 42.8776L905.654 39.2409L898.381 28.6534L891.752 25.3394Z" fill="#A5A0A1"></path><path d="M907.765 30.6191V37.7166L911.079 50.8849L913.807 51.9407L918.646 45.8991L923.485 41.2653L921.755 37.7166L907.765 30.6191Z" fill="#A5A0A1"></path><path d="M1077.66 30.6191V36.2208H1067.98L1062.85 32.5841L1067.37 30.6191H1077.66Z" fill="#A5A0A1"></path><path d="M1062.85 53.7578L1060.13 61.6178H1071.92V55.8694L1062.85 53.7578Z" fill="#A5A0A1"></path><path d="M1056.81 32.5841L1042.59 30.6191V37.7166L1033.52 30.6191L1030.21 37.7166L1036.25 45.9578L1046.52 50.8849L1054.67 42.8783L1060.12 39.2416L1056.81 32.5841Z" fill="#A5A0A1"></path><path d="M832.187 83.6733L837.026 91.3866L822.215 104.232L814.971 118.134L810.748 134.763L815.88 145.35L823.887 148.987L820.103 152.301L809.223 150.483L799.398 141.714L802.858 136.875V131.42L804.383 115.113L802.858 109.072L808.9 105.757L810.425 99.0999C810.425 99.0999 821.922 93.3516 822.215 93.3516C822.508 93.3516 827.347 87.4567 827.347 87.4567L832.187 83.6733Z" fill="#A5A0A1"></path><path d="M802.858 163.475L795.907 162.272V166.496L797.433 169.839H802.858V163.475Z" fill="#A5A0A1"></path><path d="M855.766 115.406L858.494 120.568H853.361L851.22 117.987L855.766 115.406Z" fill="#A5A0A1"></path><path d="M976.98 75.813L971.554 77.6313V81.8546H976.98V75.813Z" fill="#A5A0A1"></path><path d="M1239.08 109.247L1242.11 106.842L1247.15 108.045L1248.97 96.1377L1241.52 89.0989L1243.54 85.257L1246.56 89.8908L1250.58 90.888L1251.37 86.6647L1256.21 86.4594L1259.03 89.8908L1270.32 86.87L1264.48 76.9864L1260.05 74.3762L1265.3 68.5399L1261.08 61.6771L1251.81 60.2694L1246.77 64.3167L1252.02 71.3554H1247.38L1241.96 63.2902L1219 60.2694L1200.25 57.2486L1181.31 61.4718L1183.54 66.311L1190.19 71.5607L1188.58 76.3999L1184.15 73.3791L1179.11 71.5607L1175.3 67.5428L1173.07 72.7925L1157.96 76.4292L1158.58 81.4736L1153.74 78.2475L1147.7 79.6553L1144.68 71.59L1136.03 67.3668L1123.74 73.2031L1116.08 75.432L1115.47 72.4112L1111.62 70.5929L1109.01 73.0271L1102.15 69.0092L1102.77 64.7859L1092.3 65.9884L1090.68 74.8455L1089.28 67.9827L1084.23 70.0063L1084.44 65.9884L1067.1 67.1908L1072.15 71.4141L1067.93 74.8455L1072.15 76.0479L1075.58 81.8842L1071.15 82.2948L1071.36 87.7205L1063.5 84.4944L1059.86 86.1075L1060.48 88.5124L1054.43 88.3071L1050.8 85.2863L1053.61 98.396L1043.52 93.1462L1035.46 88.7177L1040.3 87.7205L1037.28 83.292L1034.26 83.9079L1034.05 79.6846L1023.17 75.0508L1014.9 76.0479L1011.88 77.8663L1015.72 84.1132L1005.46 87.134L998.213 86.7234L998.418 81.6789L982.698 84.905L976.862 87.3099L970.82 84.6997V90.9466L963.958 101.417L963.166 94.554L968.21 78.0422L970.029 65.7537L957.945 57.2779L951.904 54.6677L945.041 57.8938L942.636 63.5248L940.436 54.6677L931.961 57.2779L933.163 51.031L926.506 49.418L923.485 59.3016L930.729 68.1587L921.96 69.1558L927.297 75.608L921.96 72.5872L917.414 77.0158L915.009 75.1974L906.944 77.221L910.58 79.0394L900.11 86.4887L895.887 94.7593L896.298 100.596L902.955 103.822L899.934 105.845L883.774 111.447L888.614 121.125L896.474 125.349L899.729 127.255L901.313 128.193L904.128 135.261L900.697 138.693L899.084 128.428H892.221L882.337 122.973L879.727 126.404L881.546 130.246L876.091 128.428L879.317 134.88L887.382 137.285L875.299 135.877L870.87 121.976L868.26 121.77L871.075 129.836L867.849 132.651L869.873 138.282L875.328 142.505L877.762 153.181L880.372 155.615L886.209 152.8L894.655 157.639L894.45 161.276L891.224 159.252L887.001 155.41L882.161 159.457L885.388 167.522L883.159 174.972L880.548 178.403L876.706 176.995L879.727 160.66L874.067 154.999L868.817 140.277L865.005 137.05L863.391 124.557L852.1 123.765L852.511 136.259L849.49 142.505L856.147 155.205L859.373 155.82L864.623 160.249L864.007 166.291L853.332 159.633L842.041 155.41L835.002 155.615L834.21 158.636L837.231 163.886L834.005 167.317L831.394 163.68L820.514 167.522L818.901 170.338L814.677 170.543L814.267 165.909L800.365 175.793L798.342 177.611L797.726 183.008L792.681 183.624L789.25 178.784L793.268 175.558L789.045 170.924L782.182 170.309L784.587 181.805L787.402 182.597L787.813 189.665L780.95 187.436L773.501 195.091L777.519 200.341L774.908 203.156L764.82 198.317L763.412 202.13L769.864 204.945L767.254 207.966L760.186 204.535L756.344 197.085L756.96 191.454L747.076 185.207L748.689 184.415L759.159 189.049L767.635 191.659L775.906 187.847L776.903 181.395L756.93 167.933L748.924 169.135L742.032 166.672L739.48 165.851L734.582 170.954L734.348 170.367L733.057 174.033L739.216 182.304L737.339 186.498L741.856 196.176V201.367L745.375 212.834L748.015 216.354L739.421 230.989L743.85 234.83L738.981 238.936L740.536 248.439L742.413 258.234L738.571 261.871L735.374 269.115L727.778 272.898L727.719 272.84L729.772 278.735L728.101 281.492L728.453 283.633L732.383 284.366L736.929 282.929L744.847 284.806H751.534H755.083L755.757 282.107L759.951 281.492L760.831 279.937H766.667L767.312 283.427L769.307 285.451L771.506 284.894L775.026 290.847L780.569 289.41L782.299 291.404L790.892 293.311L791.889 295.54L790.247 296.537L791.244 300.995L790.922 303.194L787.607 304.192L786.757 307.124L788.458 306.596L787.256 309.823L784.851 316.069L782.24 315.864L782.446 317.888L787.08 320.498L795.145 326.334L801.392 331.173L800.688 334.81L807.433 336.101L809.838 338.154L815.323 337.45L817.464 335.749L823.036 337.45L821.247 334.165L822.332 332.962L826.643 336.071L830.954 332.904L824.796 323.489L820.367 320.469L822.391 313.401L826.233 312.198L829.019 309.881L825.206 306.948L817.522 299.704L817.112 290.847L819.165 288.032L824.15 291.874V287.24L830.456 280.788H835.852L845.736 285.422L855.444 283.398L862.394 285.422L870.372 284.63V280.788L865.708 276.946L867.233 270.699H870.372L865.708 266.652L870.372 265.244L888.966 258L893.658 254.158L901.107 255.155L902.31 260.61L916.417 263.425L923.661 258L941.61 278.148L947.651 278.559L953.898 276.33L960.761 282.577L964.984 283.984L969.207 283.574L971.29 286.741L972.433 285.598L973.225 286.683L975.982 283.984L981.701 276.916L989.972 274.893L999.034 279.879L1009.94 278.705L1006.51 270.23L1009.94 265.39L1023.23 267.619L1028.68 274.277L1040.77 272.664L1051.65 277.298L1067.57 275.069L1073.82 269.438L1082.82 271.725L1082.88 271.051L1087.93 271.461L1091.15 267.619L1090.33 261.167L1091.33 256.533V252.339L1087.9 251.489L1088.9 248.057L1096.14 245.242H1103.21L1110.45 247.647L1117.52 257.736L1123.36 266.388L1128.99 267.59L1138.05 271.227L1140.1 278.09L1145.53 279.087L1147.58 274.863L1152.8 272.253L1155.62 276.799L1154.8 280.582L1155.62 294.631L1150.07 293.839L1147.58 296.244L1150.07 306.919L1148.29 309.705L1150.07 310.849L1150.98 309.735L1152.8 305.306L1155.62 305.511L1157.02 308.327L1161.45 307.33L1168.32 293.633L1172.54 278.324L1174.36 267.033L1170.72 255.331L1169.31 244.861L1167.7 241.429L1166.09 235.388L1155 230.138L1153.39 234.567L1150.37 232.953L1147.35 234.156L1144.91 227.909L1138.46 227.704L1145.7 208.142L1148.52 195.443L1150.95 189.196L1166.47 184.357L1172.51 184.151L1173.33 179.107C1173.33 179.107 1182.8 180.515 1183.42 180.72C1184.04 180.925 1182.42 183.946 1182.42 183.946L1183.57 185.765L1194.92 179.518L1193.1 177.083L1189.87 176.673L1191.07 165.176L1190.72 158.401L1196.15 154.97L1202.19 152.946L1203.19 160.22L1208.61 162.83L1212.25 151.128L1208.41 143.268L1215.65 141.86L1218.26 158.988L1213.83 163.211L1213.42 179.928L1212.6 187.172L1208.55 190.604L1209.96 196.235L1209.55 206.5L1224.27 232.103L1229.73 241.987L1234.36 237.763L1232.96 227.088L1236.8 224.067L1234.39 216.207L1238.41 211.779L1233.78 197.466L1238.41 197.056L1234.98 192.217H1231.96L1232.16 184.973L1228.53 183.77L1227.73 186.791L1224.92 183.565L1225.12 172.479L1222.51 165.411L1229.17 159.956L1231.99 164.795L1235.01 156.73L1240.05 155.527L1246.3 160.161V156.319L1248.12 143.209L1257.18 128.897H1263.43V123.853L1242.87 109.13H1239.08V109.247ZM751.769 234.391L745.316 227.938L748.132 221.281L756.197 230.138L751.769 234.391ZM765.465 227.938L759.423 221.281L761.242 215.65L763.646 217.263L766.051 221.809L767.87 226.736L765.465 227.938ZM779.161 247.442L772.298 242.163L774.703 238.848L780.539 243.658L779.161 247.442ZM1037.95 259.378V265.156L1028.68 267.649V265.156L1033.93 262.81L1036.96 254.862L1040.8 247.471L1036.96 237.147H1042.79L1045.2 252.222L1037.95 259.378Z" fill="#A5A0A1"></path><path d="M1235.68 460.13L1234.07 458.722L1232.05 461.332L1233.86 464.558L1235.68 460.13Z" fill="#524D4F"></path><path d="M1292.11 549.815V551.135L1296.33 556.062L1298.15 553.833L1292.11 549.815Z" fill="#6B6365"></path><path d="M1296.54 558.79L1295.13 561.107L1300.56 563.717L1301.38 561.254L1296.54 558.79Z" fill="#6B6365"></path><path d="M1301.38 553.834H1299.97L1303.4 561.254L1305.81 559.7L1301.38 553.834Z" fill="#6B6365"></path><path d="M1302.87 562.515V564.744L1307.42 567.354V564.744L1302.87 562.515Z" fill="#6B6365"></path><path d="M1322.93 582.868L1320.53 584.071L1322.93 588.704L1325.57 587.502L1322.93 582.868Z" fill="#A5A0A1"></path><path d="M1325.57 588.706L1324.55 592.137H1327.36L1325.57 588.706Z" fill="#A5A0A1"></path><path d="M1329.39 595.772H1327.36L1328.39 599.585H1330.38L1329.39 595.772Z" fill="#A5A0A1"></path><path d="M1369.68 595.772L1365.66 597.678L1364.26 600.816L1369.68 601.814L1370.71 598.793L1369.68 595.772Z" fill="#888183"></path><path d="M1376.55 590.435L1370.71 592.752V594.952H1376.55V590.435Z" fill="#888183"></path><path d="M1310.23 609.057L1309.03 610.875L1312.87 617.122L1319.12 621.375L1320.53 618.735L1314.78 613.515L1310.23 609.057Z" fill="#B8B3B5"></path><path d="M1332.61 690.092L1330 691.089L1331.29 699.975L1332.61 708.627L1331.29 719.508L1326.37 720.71V724.142L1330.59 728.6L1326.37 735.844L1328.18 739.275L1339.86 725.96L1344.11 723.145L1348.74 714.669L1346.72 712.88L1343.08 715.901L1339.27 712.469L1338.86 704.609L1335.22 705.606L1337.54 697.746L1332.61 690.092Z" fill="#524D4F"></path><path d="M1318.1 730.388L1323.76 737.867L1322.35 742.501L1314.49 749.54V753.587L1306.8 755.2L1300.97 764.262L1292.9 771.301L1287.68 768.691L1282.84 766.667L1289.09 756.402L1299.77 749.95L1309.44 742.882L1318.1 730.388Z" fill="#524D4F"></path><path d="M1284.84 769.513L1288.47 773.325L1282.84 775.554L1284.84 769.513Z" fill="#524D4F"></path><path d="M1207.85 719.509C1208.47 719.509 1214.92 724.759 1214.92 724.759L1222.37 722.148L1220.34 730.419L1215.09 736.46L1209.84 739.276L1207.82 735.229V719.509H1207.85Z" fill="#888183"></path><path d="M1227.21 566.152H1224.19L1221.37 578.236L1219.26 592.694L1215.12 596.566L1209.29 592.694L1198.2 585.802L1196.79 581.374L1202.63 571.607L1193.07 570.405L1185.12 567.384V571.226L1178.08 572.018L1171.22 579.262V584.306L1166.59 582.899L1161.16 578.881L1152.48 584.717L1147.64 590.465L1146.23 595.011L1142.57 590.465L1139.19 595.011V598.853L1134.97 604.895L1110.39 611.347L1103.73 615.277L1100.71 628.269L1102.33 634.722L1100.71 636.745L1102.12 648.447L1104.15 663.962C1104.15 663.962 1098.69 672.819 1099.31 673.024C1099.92 673.229 1102.74 678.069 1102.74 678.069L1110.39 680.092L1121.07 674.461H1132.07L1137.11 669.827L1142.51 669.417L1144.38 666.396H1151.45L1157.9 663.991L1170.19 665.193L1177.03 668.009L1181.37 682.321L1191.95 671.44L1186.32 684.139L1193.07 682.321L1190.96 687.952L1195.18 686.955V696.839L1197 701.883L1207.88 708.922L1213.72 704.288L1217.35 710.945L1227.24 704.288L1233.28 704.493L1236.3 700.27L1239.32 690.181L1254.22 669.622L1262.49 647.45L1259.47 630.733L1245.57 606.332L1238.12 599.674L1235.3 581.931L1230.87 580.728L1227.21 566.152Z" fill="#888183"></path><path d="M1175.21 566.152V569.378L1179.02 570.376L1181.37 567.355L1175.21 566.152Z" fill="#888183"></path><path d="M1182.86 688.684L1188.52 686.866L1190.31 690.092H1184.27L1182.86 688.684Z" fill="#888183"></path><path d="M1164.33 556.063L1163.33 553.834L1155.97 555.066L1152.65 557.06L1156.56 558.996L1156.88 558.702L1164.33 556.063Z" fill="#888183"></path><path d="M1250.79 540.958V543.979L1257.83 546.237H1263.69L1267.91 540.958V536.119H1265.1L1262.08 542.659H1256.83L1250.79 540.958Z" fill="#B8B3B5"></path><path d="M1261.05 529.462V531.779L1266.92 533.949L1270.35 539.932H1271.55L1267.91 532.483L1261.05 529.462Z" fill="#B8B3B5"></path><path d="M1276.98 541.165V544.772L1279.62 548.409L1283.02 546.238L1276.98 541.165Z" fill="#B8B3B5"></path><path d="M1252.81 557.06L1245.54 547.997L1248.76 547.587L1248.38 543.979L1240.11 540.958L1241.11 537.322L1221.25 529.638L1220.52 558.262L1221.17 558.79L1229.03 560.11L1230.64 552.426L1235.86 551.429L1241.73 554.86L1246.95 562.309L1259.44 564.743V561.693L1252.81 557.06Z" fill="#B8B3B5"></path><path d="M1043 497.406L1033.93 495.177V497.992L1038.48 503.242L1046.84 511.513C1046.84 511.513 1054.7 525.414 1054.9 526.03C1055.11 526.646 1058.13 531.485 1058.13 531.485L1071.24 543.979H1076.69L1078.72 532.893L1073.26 529.256L1071.86 524.417L1067.63 522.804L1069.25 519.578L1066.81 517.173L1059.95 512.334L1051.09 504.474L1043 497.406Z" fill="#A5A0A1"></path><path d="M1079.89 543.979L1074.44 548.203L1086.73 552.426L1100.63 554.45L1109.1 555.652H1116.76L1121.19 558.086L1129.05 557.089C1129.05 557.089 1128.64 560.521 1129.05 560.521C1129.46 560.521 1137.52 563.747 1137.52 563.747V559.318L1130.66 557.91L1132.07 556.092L1137.52 556.884L1146.17 556.092V552.866L1141.33 554.89L1136.08 553.892L1128.84 554.89L1120.57 553.892H1114.32L1110.13 552.485L1103.65 548.467L1096.4 545.446L1095.61 548.672L1088.22 548.056L1079.89 543.979Z" fill="#A5A0A1"></path><path d="M1043 513.126H1040.18L1043 517.555L1045.4 515.355L1043 513.126Z" fill="#A5A0A1"></path><path d="M1048.25 523.215L1046.43 525.444L1049.86 528.465L1051.06 525.826L1048.25 523.215Z" fill="#A5A0A1"></path><path d="M1076.46 525.826L1074.44 528.465L1080.27 533.099L1081.68 530.665L1076.46 525.826Z" fill="#A5A0A1"></path><path d="M1083.7 530.459V533.099H1087.14L1088.22 530.459H1083.7Z" fill="#A5A0A1"></path><path d="M1155.97 513.126L1150.43 515.355L1138.52 514.241L1133.89 517.555L1132.07 524.418L1129.05 534.507L1132.07 535.709V543.364L1136.52 543.98L1137.32 531.779L1138.72 533.099L1141.16 541.34L1148.61 537.322L1140.95 528.553L1149.4 524.418L1148.81 521.397L1138.72 525.826L1134.91 520.81L1137.93 517.555H1144.38L1150.81 519.579L1155.97 515.355V513.126Z" fill="#A5A0A1"></path><path d="M1169.75 509.313C1169.14 509.313 1165.32 511.923 1165.32 511.923V519.578L1169.75 524.212V521.777L1167.52 517.554H1171.34V513.126H1168.32L1169.75 509.313Z" fill="#A5A0A1"></path><path d="M1161.89 531.779L1157.87 533.099L1159.9 536.119H1164.33L1161.89 531.779Z" fill="#A5A0A1"></path><path d="M1166.53 531.779L1167.55 536.119L1174.01 533.949L1179.84 536.119L1177.82 531.779L1173.18 530.459L1166.53 531.779Z" fill="#A5A0A1"></path><path d="M1195.15 543.979C1194.54 543.364 1192.92 542.66 1192.92 542.66L1190.9 546.59L1191.9 549.816L1195.15 543.979Z" fill="#A5A0A1"></path><path d="M1182.86 548.408L1179.84 549.815L1180.66 553.833L1182.86 551.135V548.408Z" fill="#A5A0A1"></path><path d="M1149.81 558.79L1147.61 563.718L1153.04 562.515L1156.55 558.996L1152.65 557.06L1149.81 558.79Z" fill="#A5A0A1"></path><path d="M1207.26 524.212L1199.2 533.304L1194.15 530.459L1192.95 523.215L1185.68 520.604L1179.02 523.215L1179.84 525.532L1184.68 529.462L1190.72 528.464L1191.34 530.459L1184.27 531.779L1187.5 537.322L1191.72 533.949L1206.85 541.75L1211.49 549.199L1207.47 554.86L1215.12 553.833L1220.52 558.262L1221.25 529.638L1207.26 524.212Z" fill="#A5A0A1"></path><path d="M1126.44 509.314L1124.03 505.266L1125.88 501.806L1118.61 500.838L1113.77 513.742L1097.43 516.763L1094.15 511.895L1091.8 511.308C1091.8 511.308 1087.17 517.555 1088.49 517.35C1089.8 517.144 1095.85 532.864 1095.85 532.864L1111.16 534.067L1113.18 537.293L1118.43 534.067L1120.63 526.412L1125.26 516.734L1130.89 515.913L1125.64 511.279L1126.44 509.314Z" fill="#A5A0A1"></path><path d="M1142.51 446.432L1134.5 436.959L1132.07 440.772L1130.86 451.653L1134.91 457.108L1138.31 459.923L1144.56 461.331L1149.81 465.965L1153.45 469.396H1150.81L1147.61 475.438L1146.17 469.602L1142.16 468.399V474.03L1145.18 472.622L1143.56 478.048L1147.61 480.482L1150.63 475.438L1151.63 478.048L1154.44 476.846L1152.24 472.007L1155.97 472.212L1157.88 471.42L1155.97 464.352L1149.19 463.355L1147.61 458.721L1143.36 456.492H1139.34L1138.31 451.448L1142.51 446.432Z" fill="#888183"></path><path d="M1155.97 477.05L1150.81 484.5L1149.02 482.711L1142.51 486.641V490.571H1144.38L1146.17 487.139H1151.01L1151.42 492.565L1155.97 495.204L1157.88 491.568V487.726L1162.1 488.958L1160.28 480.482L1155.97 477.05Z" fill="#888183"></path><path d="M1130.86 469.601L1132.07 473.824L1123.41 482.711L1121.6 481.479L1130.86 469.601Z" fill="#888183"></path><path d="M1133.47 460.128L1137.32 467.167L1140.13 464.967L1138.52 461.33L1133.47 460.128Z" fill="#888183"></path><path d="M1135.91 408.336L1132.89 406.195L1129.05 412.354V418.19L1131.48 421.035L1132.48 423.85H1133.89L1132.48 420.214L1134.91 417.193L1135.91 408.336Z" fill="#6B6365"></path><path d="M970.644 478.048L969.236 487.111L971.641 495.176L977.682 491.539C977.682 491.539 977.272 487.111 977.682 486.612C978.093 486.114 973.459 479.456 973.459 479.456L970.644 478.048Z" fill="#B8B3B5"></path><path d="M1206.44 296.801L1187.7 288.647V291.668L1189.49 296.801V302.226H1186.47V308.591L1188.9 314.925L1193.13 311.905L1189.49 307.066L1193.13 306.479L1199.78 310.086L1201.31 301.786H1206.44V296.801Z" fill="#888183"></path><path d="M1193.13 314.925L1189.49 318.562V324.31L1191.31 332.757L1189.49 340.323H1182.86L1180.6 347.89L1176.5 349.386L1169.25 351.204L1162.6 357.832V361.176L1158.96 365.428L1164.41 377.218L1168.05 374.197V363.61L1164.71 360.267L1168.05 357.832L1177.73 354.841L1180.6 359.387L1182.54 362.701L1186.47 356.659V353.023L1191.02 354.841L1193.13 352.729L1196.47 348.477L1197.97 353.932L1201.31 348.183L1198.88 344.547L1196.47 335.484L1200.08 332.464L1198.58 321.876L1193.13 314.925Z" fill="#888183"></path><path d="M1175.91 357.833L1168.05 360.589L1171.98 366.924L1175.91 362.378H1178.64L1175.91 357.833Z" fill="#888183"></path><path d="M1001.26 408.863L997.685 407.133L999.034 404.552L1003.79 406.018L1006.28 409.391L1015.25 410.681L1010.97 416.4L1014.02 419.978L1014.37 417.955L1015.99 416.4L1017.77 424.818L1019.83 422.149V416.4H1023.05V411.591L1027.63 401.15L1033.38 397.572L1029.98 394.17L1027.98 389.858L1021.44 390.738L1011.15 397.572L1012.2 402.059L1000.38 402.235L999.034 396.663L996.072 396.839V404.2L988.183 403.291L976.891 400.241L963.957 394.17L965.043 386.456L958.415 384.462L955.54 375.077L947.651 373.347L941.404 376.367L943.164 376.837L939.205 380.708L938.325 385.958L931.139 398.452L925.215 397.572L921.285 403.291L927.561 409.215L929.321 414.259L921.109 415.667L918.616 417.955L919.437 418.189L922.077 421.24L927.708 420.624L923.866 424.055L920.669 423.439L929.321 431.299L934.952 427.897L936.389 422.647L938.383 438.367L943.633 453.676L950.496 468.399L960.35 484.5L963.195 483.503L969.618 475.438L971.26 462.152V451.858L982.141 443.412L989.385 435.141L995.837 429.891L999.474 424.466L1004.11 425.375L999.034 412.441L1001.26 408.863Z" fill="#524D4F"></path><path d="M990.5 395.548H985.837L983.52 394.17L976.012 389.683L968.621 387.63H964.867L963.958 394.17L976.891 400.241L988.183 403.291L996.072 404.2V397.572H994.283L990.5 395.548Z" fill="#A5A0A1"></path><path d="M954.807 367.599L949.616 361.88L943.164 359.182L939.938 352.906H935.626V354.519L930.23 357.129L929.731 357.305L929.321 359.769L935.626 363.992L933.309 367.13L934.189 373.171L937.239 375.312L941.404 376.368L947.651 373.347L955.54 375.078L956.068 376.838L958.209 375.136L954.807 367.599Z" fill="#888183"></path><path d="M1017.77 424.818L1015.99 416.401L1014.37 417.955L1014.02 419.979L1010.97 416.401L1015.25 410.682L1006.28 409.391L1003.79 406.019L999.034 404.552L997.685 407.133L1001.26 408.863L999.034 412.442L1004.11 425.375L1004.49 425.463L1009.12 421.621L1012.76 421.035L1014.99 427.487L1017.07 429.892L1018.01 424.525L1017.77 424.818Z" fill="#A5A0A1"></path><path d="M1047.89 460.129L1044.14 455.32L1044.84 448.897L1039.48 441.154L1041.71 436.051L1048.45 431.095L1053.11 425.552L1044.49 423.029L1046.11 420.712L1043.41 416.401L1039.13 415.023L1036.96 412.618L1040.56 403.673L1036.43 395.549L1032.61 396.81L1033.38 397.572L1027.63 401.151L1023.05 411.591V416.401H1019.83V422.149L1018.01 424.525L1017.07 429.892L1019.01 432.121L1023.23 435.347L1021.44 436.755L1023.23 439.16L1025.25 436.96L1028.07 444.82L1026.28 451.067L1028.07 452.064L1036.96 447.636V444.615L1041.79 454.088L1045.02 462.534L1046.63 469.808L1045.4 475.233V477.726L1049.16 469.602L1048.63 465.584L1047.89 460.129Z" fill="#888183"></path><path d="M1002.88 395.9L999.562 398.891L1000.38 402.235L1012.2 402.059L1011.15 397.572L1011.29 397.454L1009.33 395.9H1002.88Z" fill="#B8B3B5"></path><path d="M1078.66 473.267L1076.61 469.601L1082.53 464.557L1080.71 458.721L1076.61 456.58V460.128L1071.21 457.283H1064.32L1061.36 461.653L1062.41 468.311L1065.76 472.417L1067.78 475.232H1071.03L1072.65 473.267H1078.66Z" fill="#6B6365"></path><path d="M1085.93 450.861L1076.46 443.411L1075.64 440.977L1072.41 438.572L1073.03 432.501L1075.43 427.692L1079.86 426.137L1074.82 423.85V420.154L1067.81 417.955L1059.57 420.711L1056.78 421.562L1059.57 425.903L1061.36 428.923H1067.1L1069.07 432.12L1065.49 435.053L1067.28 438.631L1071.94 440.977L1076.05 446.52L1082.53 450.304L1081.45 454.058L1080.45 458.574L1080.71 458.721L1082.53 464.557L1076.61 469.601L1078.66 473.267H1072.65L1071.03 475.232H1071.21L1073.23 475.643L1071.83 482.887L1074.44 482.301L1079.69 475.027L1082.3 474.851L1089.16 469.191V462.533L1085.93 450.861Z" fill="#A5A0A1"></path><path d="M1142.57 344.254L1140.54 345.661L1143.97 350.882L1142.77 354.518L1145.18 359.152L1150.43 354.929L1155.65 351.703L1151.63 341.203L1147.61 335.396L1139.6 339.884L1142.57 344.254Z" fill="#524D4F"></path><path d="M1141.72 314.925L1142.8 318.473L1136.32 316.479L1130.22 325.629V328.68L1133.88 329.735V338.798L1135.91 341.408L1139.13 339.208L1139.6 339.883L1147.61 335.396V335.366L1145.79 333.343L1141.95 331.348L1141.54 327.712L1148.4 320.644L1146.99 314.602L1150.1 310.877L1146.55 308.59L1141.72 314.925Z" fill="#B8B3B5"></path><path d="M1147.61 296.273L1150.1 293.838L1155.65 294.66L1154.85 280.611L1155.65 276.857L1152.83 272.282L1147.61 274.892L1145.59 279.145L1140.16 278.119L1138.11 271.285L1129.05 267.648L1123.41 266.446L1117.58 257.794L1110.51 247.705L1103.27 245.271H1096.2L1088.95 248.116L1087.93 251.518L1091.36 252.398V256.562L1090.36 261.196L1091.15 267.648L1087.93 271.49L1082.91 271.08L1081.48 284.395H1084.7H1089.75L1092.39 281.755L1097.22 286.506L1098.63 290.231L1093.38 291.023L1089.34 294.454L1087.34 298.091L1082.91 299.499L1079.69 302.93L1074.44 301.904L1070.59 303.311V306.948L1074.03 308.59L1069.6 316.01L1054.08 321.055L1050.04 323.87H1043.99L1035.08 319.852L1028.68 318.855L1021.03 319.852H1014.17L1008.92 311.993L1000.68 307.769H993.022L988.564 305.13L989.59 301.786L988.564 297.475L985.162 292.871L980.029 292.049L977.683 292.871L972.463 285.597L969.442 288.647L966.597 292.871L968.005 296.683L965.189 299.704L958.209 298.502L956.332 306.948L958.209 308.59L954.925 309.764L949.264 310.79V313.488L951.493 313.811L953.722 321.466L952.109 325.014L947.651 323.284L937.386 323.079L925.89 322.081V325.014H917.619L916.065 328.299V331.906L918.763 333.754L920.2 331.378L922.458 333.754L920.552 335.514L914.833 334.135L911.959 337.039L913.22 339.121L906.386 342.846L909.085 347.978L908.205 353.345L912.487 354.518L916.798 353.081L919.496 347.978L922.458 349.181V356.483H925.89L930.054 351.732L935.627 350.647V352.905H939.938L943.164 359.182L949.616 361.88L954.807 367.599L958.209 375.136L956.068 376.837L958.415 384.462L965.043 386.457L964.867 387.63H968.621L976.012 389.683L983.52 394.17L985.837 395.548H990.5L994.283 397.572H996.072V396.839L999.034 396.663L999.562 398.892L1002.88 395.9H1009.33L1011.29 397.455L1021.44 390.739L1027.98 389.859L1029.98 394.17L1032.61 396.81L1036.43 395.548L1040.56 403.672L1036.96 412.617L1039.13 415.022L1043.41 416.401L1046.11 420.712L1044.49 423.029L1053.12 425.551L1052.18 426.636L1054.9 427.164V422.149L1059.57 420.712L1067.81 417.955L1074.82 420.155V423.85L1079.86 426.138L1084.12 424.642L1087.72 425.874L1089.16 430.508L1091.56 430.302V426.079L1101.86 422.442L1114.15 417.398L1119.57 410.652L1124.62 400.681L1129.05 392.41L1131.27 383.729L1125.61 380.914L1129.87 377.101L1125.23 373.464L1128.25 371.441L1120.39 360.765L1115.35 358.536L1116.35 352.289L1121.19 347.45L1126.03 346.453L1126.23 342.64H1120.19L1117.75 340.822L1115.14 342.64L1113.33 345.837H1110.92L1109.92 341.614L1107.69 341.819L1104.06 338.593L1104.47 334.37L1108.69 334.751L1109.72 329.531L1112.74 328.915L1115.35 323.079L1120.19 324.281L1117.96 329.736L1119.57 332.757L1117.75 335.162L1119.19 336.394L1122.01 333.754L1123 331.73L1129.66 328.534L1130.22 328.68V325.63L1136.32 316.48L1142.8 318.474L1141.72 314.925L1146.55 308.59L1148.31 309.734L1150.1 306.948L1147.61 296.273Z" fill="#6B6365"></path><path d="M1067.57 275.098L1051.65 277.327L1040.77 272.693L1028.68 274.306L1023.23 267.649L1009.94 265.42L1006.51 270.259L1009.94 278.735L999.033 279.908L990 274.893L981.729 276.917L976.01 283.985L973.224 286.683L977.682 292.871L980.028 292.05L985.161 292.871L988.563 297.476L989.589 301.787L988.563 305.13L993.021 307.77H1000.68L1008.92 311.993L1014.17 319.853H1021.03L1028.68 318.856L1035.08 319.853L1043.99 323.871H1050.03L1054.08 321.055L1069.6 316.011L1074.02 308.591L1070.59 306.949V303.312L1074.44 301.904L1079.69 302.931L1082.91 299.499L1087.34 298.091L1089.33 294.455L1093.38 291.023L1098.63 290.232L1097.22 286.507L1092.38 281.756L1089.74 284.395H1084.7H1081.47L1082.82 271.755L1073.82 269.467L1067.57 275.098Z" fill="#524D4F"></path><path d="M1023.05 461.331L1021.03 463.765L1019.83 474.03L1021.44 475.438V470.217L1023.05 465.584V461.331Z" fill="#524D4F"></path><path d="M1024.84 482.711L1027.28 491.569L1028.68 490.161L1026.78 484.324L1024.84 482.711Z" fill="#524D4F"></path><path d="M1113.74 513.74L1118.57 500.836L1125.85 501.833L1127.43 498.812L1132.07 496.613L1121.19 488.958L1110.13 500.249L1101.86 507.699L1098.43 512.919L1094.12 511.893L1097.4 516.761L1113.74 513.74Z" fill="#524D4F"></path><path d="M1053.67 493.181L1055.28 501.041L1059.33 507.082L1070.21 513.74L1071.21 511.511L1067.37 505.88L1066.99 497.815L1061.94 492.389L1061.82 492.33L1052.53 491.656L1053.67 493.181Z" fill="#524D4F"></path><path d="M1069.6 449.043L1068.37 443.47L1064.32 439.98L1063.15 442.591L1059.92 441.681L1054 443.47V436.05H1051.85L1048.6 430.889L1048.45 431.094L1041.71 436.05L1039.48 441.154L1044.84 448.896L1044.14 455.319L1047.89 460.129L1048.63 465.584L1049.16 469.602L1045.4 477.726V484.501L1046.63 483.914L1052.53 491.657L1061.83 492.331L1056.31 489.34L1053.67 486.935L1054.7 485.938L1053.26 482.506L1050.45 479.28L1048.63 477.872L1050.04 472.007L1051.47 465.965L1051.65 461.742H1055.08V465.379L1062.15 467.989L1062.41 468.311L1061.36 461.654L1064.32 457.284H1071.21L1072.38 457.9L1073.56 452.269L1069.6 449.043Z" fill="#B8B3B5"></path><path d="M1082.53 450.303L1076.05 446.52L1071.94 440.977L1067.28 438.63L1065.49 435.052L1069.07 432.12L1067.1 428.923H1061.36L1059.57 425.902L1056.78 421.562L1054.9 422.148V427.163L1052.18 426.635L1048.6 430.888L1051.85 436.05H1053.99V443.47L1059.92 441.681L1063.14 442.59L1064.32 439.98L1068.37 443.47L1069.6 449.042L1073.56 452.268L1072.38 457.899L1076.61 460.128V456.579L1080.45 458.574L1081.45 454.057L1082.53 450.303Z" fill="#524D4F"></path><path d="M1093.18 432.12H1086.73L1083.7 434.936L1085.52 439.98H1089.16L1091.77 438.162L1093.18 434.114V432.12Z" fill="#6B6365"></path><path d="M769.306 368.01L771.3 370.855L776.55 369.417L778.779 366.221H774.028L769.306 368.01Z" fill="#B8B3B5"></path><path d="M865.649 465.379H860.81V467.784H865.649V465.379Z" fill="#524D4F"></path><path d="M786.228 360.561L807.022 358.156H816.524L817.434 356.837L815.087 353.464L813.65 346.249L815.087 344.138L811.333 343.023L810.981 339.122L807.374 336.072L800.629 334.782L800.13 337.392L791.654 338.594L781.184 335.984L775.758 333.755L765.875 335.574L762.033 339.005L756.607 338.389L754.583 339.797L755.199 341.615L747.339 342.818L744.113 344.841L744.7 347.452L746.723 348.067L746.929 351.704L744.905 352.701L752.354 360.767L760.009 362.585L762.854 359.769L770.303 363.787L775.758 362.174L778.984 359.564L784.41 359.359L783.648 363.553L786.228 364.609V360.561Z" fill="#524D4F"></path><path d="M822.449 348.653L824.238 346.248L819.75 343.022L815.762 337.039L815.263 337.42L809.808 338.124L810.981 339.121L811.333 343.022L815.087 344.136L814.031 345.691L815.996 345.192L817.052 346.277L818.489 345.134L822.449 348.653Z" fill="#B8B3B5"></path><path d="M835.001 339.21L830.866 332.904L826.584 336.072L822.273 332.963L821.188 334.165L822.977 337.421L817.434 335.72L815.762 337.04L819.751 343.022L824.238 346.249L822.449 348.653L818.489 345.134L817.052 346.278L820.308 349.475L824.414 349.299L828.901 345.193L831.247 348.653V351.088L832.919 351.733L834.004 343.022L837.025 340.823L835.001 339.21Z" fill="#6B6365"></path><path d="M785.495 378.745L784.439 376.399L780.832 376.985L780.392 379.097L776.755 384.552L781.624 395.55L782.328 392.852L783.53 380.71L785.495 378.745Z" fill="#A5A0A1"></path><path d="M782.474 369.243L780.832 376.985L784.439 376.399L784.762 377.103L787.108 371.736L782.474 369.243Z" fill="#6B6365"></path><path d="M790.511 392.91H793.209L795.907 388.775L791.068 384.463L798.957 381.061L796.259 375.313L788.546 380.709L785.144 379.096L783.531 380.709L782.328 392.851L782.387 392.617V394.64L787.109 395.549L790.511 392.91Z" fill="#B8B3B5"></path><path d="M804.5 363.992V361.675L808.811 359.769V358.156H807.022L786.228 360.561V364.608L783.647 363.552L783.413 364.784L782.474 369.242L787.108 371.735L784.762 377.102L785.495 378.744L785.143 379.096L788.545 380.709L796.258 375.313L796.493 375.811L804.5 369.828V363.992Z" fill="#888183"></path><path d="M820.484 395.549H829.077L830.69 390.739L834.943 391.473L835.617 389.596H835.852L832.86 385.548V381.589L827.64 377.483L822.449 373.524L822.625 369.828L824.238 368.01L825.323 364.608L820.66 362.79L816.554 358.097L816.525 358.156H808.811V359.769L804.5 361.675V363.992V369.828L796.493 375.811L798.781 380.709H801.831L820.484 395.549Z" fill="#6B6365"></path><path d="M836.086 396.311L835.998 396.252L834.21 393.613L834.943 391.472L830.69 390.739L829.106 395.461L833.476 397.572L836.086 396.311Z" fill="#B8B3B5"></path><path d="M849.724 410.654L849.519 408.337L847.085 407.134L846.909 412.707L850.223 414.261L849.724 410.654Z" fill="#524D4F"></path><path d="M851.924 416.284L850.516 416.401L850.223 414.26L846.909 412.706L846.88 413.381L843.067 404.905L836.087 396.312L833.477 397.573L829.107 395.461L829.077 395.549H820.484L801.832 380.709H798.781L798.957 381.061L791.068 384.463L795.907 388.774L793.209 392.91H790.511L787.109 395.549L782.387 394.64V399.479L790.658 410.653L793.678 416.783L797.315 417.604L800.131 425.053L800.952 429.482L808.401 436.755L813.445 444.615L815.909 450.246L819.223 448.868V444.556L831.072 447.694L831.688 452.094L839.137 442.415L865.62 435.054V422.326L865.708 422.15H851.924V416.284Z" fill="#A5A0A1"></path><path d="M868.67 406.019L861.191 415.58L851.923 416.283V422.149H865.708L870.635 411.591L868.67 406.019Z" fill="#6B6365"></path><path d="M839.136 442.415L831.687 452.093L831.071 447.694L819.222 444.556V448.867L815.908 450.245L817.052 452.885L820.689 465.584L826.936 464.352L829.37 461.742L833.593 463.355L838.227 460.129L845.882 456.492L856.147 453.677V449.835L859.05 448.896L853.302 438.456L839.136 442.415Z" fill="#524D4F"></path><path d="M879.346 418.015L872.483 416.783L870.635 411.592L865.62 422.326V435.055L853.302 438.457L859.051 448.898L864.828 447.021L867.849 446.229L869.051 443.589L872.278 442.797L873.891 439.161L877.527 438.955V433.53L879.932 431.096L884.566 423.646L879.346 418.015Z" fill="#B8B3B5"></path><path d="M897.236 404.201L894.009 397.573L889.346 395.549L886.12 390.739L889.346 385.959L888.642 382.146H884.566L881.457 368.538L883.803 366.221L882.718 358.948L865.62 350.648L854.475 355.927L854.944 357.833L844.885 359.769L832.596 354.519L832.919 351.733L831.247 351.088V348.654L828.901 345.193L824.414 349.299L820.308 349.475L815.997 345.193L814.032 345.691L813.65 346.249L815.088 353.463L817.434 356.836L816.554 358.097L820.66 362.79L825.323 364.608L824.238 368.01L822.625 369.829L822.449 373.524L827.64 377.483L832.86 381.589V385.548L835.852 389.596L842.04 389.801L848.111 398.453L863.01 406.019L869.667 402.295L873.685 408.336L890.637 411.562L891.135 411.533V407.134L897.236 404.201Z" fill="#888183"></path><path d="M895.623 359.769L897.236 355.223L903.336 353.786V350.648L885.944 342.319L883.07 335.514L868.934 327.42L863.215 331.379V335.514H857.232L850.223 330.47L845.735 332.963L846.879 336.189L847.084 341.409L852.129 346.249L854.475 355.927L865.62 350.648L882.718 358.948L883.393 363.552L889.346 365.195L895.623 359.769Z" fill="#6B6365"></path><path d="M909.084 347.979L906.386 342.846L913.219 339.122L911.958 337.039L914.832 334.136L920.551 335.514L922.458 333.755L920.199 331.379L918.762 333.755L916.064 331.907V327.42L909.788 334.136L901.019 333.755L900.11 330.294L896.18 329.414V325.073L892.954 321.466H880.02L873.069 317.243L871.691 319.853L865.825 318.445V313.489L855.443 315.6L858.786 335.514H863.215V331.379L868.934 327.42L883.07 335.514L885.944 342.318L903.336 350.648V353.082L907.999 354.519L909.084 347.979Z" fill="#888183"></path><path d="M907.647 385.432L917.325 380.71L919.29 370.855L923.425 369.242L924.335 358.948L930.23 357.13L935.626 354.52V350.648L930.054 351.733L925.889 356.485H922.458V349.182L919.495 347.979L916.797 353.083L912.486 354.52L908.204 353.347L907.999 354.52L903.336 353.083V353.786L897.235 355.224L895.622 359.769L889.346 365.195L883.392 363.553L883.803 366.222L881.457 368.539L884.566 382.147H888.642L889.346 385.959L886.12 390.74H907.647V385.432Z" fill="#A5A0A1"></path><path d="M929.32 414.26L927.56 409.216L921.284 403.292L925.214 397.573L931.139 398.453L938.324 385.959L939.204 380.709L943.163 376.838L937.239 375.313L934.189 373.172L933.309 367.13L935.626 363.992L929.32 359.769L929.731 357.305L924.334 358.948L923.425 369.242L919.29 370.855L917.325 380.709L907.647 385.431V390.739H886.12L889.346 395.549L894.009 397.573L897.235 404.201L891.135 407.134V411.533L903.922 410.653H910.374L915.008 416.783L918.615 417.956L921.108 415.668L929.32 414.26Z" fill="#B8B3B5"></path><path d="M964.983 283.985L960.76 282.578L953.897 276.331L947.65 278.56L941.609 278.149L923.66 258.001L916.416 263.426L902.309 260.611L901.107 255.156L893.657 254.159L888.965 258.001L870.371 265.245L865.708 266.652L870.371 270.7H867.233L865.708 276.947L870.371 280.789V284.631L862.394 285.422L855.443 283.399L845.735 285.422L835.852 280.759H830.338L824.032 287.212V291.845L819.047 288.003L816.994 290.819L817.404 299.676L825.088 306.92L828.901 309.853L834.151 305.512H842.421C842.421 305.512 844.445 313.783 844.826 314.369C845.237 314.985 836.761 315.367 836.761 315.367L834.151 319.795L837.582 324.84L843.829 327.655L845.706 332.905L850.193 330.441L857.232 335.486H858.786L855.443 315.572L865.825 313.46V311.349L872.864 307.712L874.887 313.753L873.069 317.214L880.02 321.437H892.924L896.15 325.045V329.385L900.11 330.295L901.019 333.755L909.817 334.137L916.093 327.45V328.33L917.648 325.045H925.918V322.112L937.415 323.109L947.68 323.314L952.108 325.045L953.721 321.496L951.492 313.841L949.264 313.519V310.821L954.895 309.823L958.209 308.65L956.332 307.008L958.209 298.532L965.189 299.735L968.004 296.714L966.596 292.901L969.412 288.678L971.289 286.801L969.207 283.633L964.983 283.985ZM925.889 306.949V311.994L922.458 310.175V305.542L925.889 301.905L929.32 303.107L925.889 306.949Z" fill="#B8B3B5"></path><path d="M745.404 336.394L743.175 341.175L744.113 343.023L748.952 340.002L752.97 339.591L753.381 338.008L750.36 335.984L749.686 334.136L744.964 336.189L745.404 336.394Z" fill="#524D4F"></path><path d="M694.314 264.129V266.74L695.839 267.443V265.039L694.314 264.129Z" fill="#6B6365"></path><path d="M701.881 253.542L700.766 259.994L701.881 260.287L703.083 253.542H701.881Z" fill="#B8B3B5"></path><path d="M709.536 249.905C709.242 249.905 707.307 250.404 707.307 250.404L705.899 252.633L706.515 256.357H707.307L709.008 253.131L709.536 249.905Z" fill="#B8B3B5"></path><path d="M721.443 242.164L719.214 243.483L721.443 244.07L722.645 243.102L721.443 242.164Z" fill="#B8B3B5"></path><path d="M722.645 244.979H720.416L719.214 246.093V247.383V249.906L720.211 249.202L720.915 247.442H722.645V246.474V244.979Z" fill="#B8B3B5"></path><path d="M710.562 232.573L709.536 234.392L712.263 236.21V233.394L710.562 232.573Z" fill="#524D4F"></path><path d="M619.058 221.31L617.123 221.897L618.091 224.214L619.058 227.938H619.557V223.627L619.058 221.31Z" fill="#A5A0A1"></path><path d="M571.781 196.118L567.763 191.073L564.332 193.596C564.332 193.596 560.285 198.141 560.901 198.317C561.517 198.523 568.761 198.317 568.761 198.317L567.969 201.133H561.517L562.308 204.154H566.297L568.555 206.969L565.124 207.966L566.297 210.782H571.781L577.823 213.187L592.546 206.734L595.772 202.101L594.364 195.062L589.525 191.044L581.049 194.475L575.008 193.859L574.802 198.493L571.371 199.49L571.781 196.118Z" fill="#6B6365"></path><path d="M638.591 232.073L636.479 233.275V235.006L638.005 235.709L638.591 233.891V232.073Z" fill="#524D4F"></path><path d="M630.731 246.091H624.778L623.575 250.725L622.167 253.13V255.564L620.261 257.587L620.877 260.315L623.898 256.942L622.695 261.019L622.402 265.037H624.308L625.511 260.315V264.157L624.191 268.087H626.303L630.233 266.884C630.233 266.884 629.03 269.407 629.118 269.7C629.206 269.993 629.822 271.518 629.822 271.518H632.022L631.23 276.445L626.127 275.742L625.687 279.466L627.593 279.965L627.388 282.399L623.458 284.217L624.162 286.329L626.977 285.83L629.001 286.945L631.024 287.444L634.162 285.215L632.051 288.851H627.71L625.892 290.464L621.463 294.893L623.37 295.802L627.182 293.573L629.617 294.277L632.022 291.256C632.022 291.256 635.541 291.256 635.864 291.344C636.157 291.432 644.926 290.846 644.926 290.846L648.651 287.414L645.219 286.417L649.149 281.783L648.035 278.352H642.785L643.342 276.445L642.286 274.744L639.881 269.817L638.562 269.113L635.952 264.186L632.813 261.048H629.001L632.315 259.728L631.904 258.321L635.218 252.162L631.992 251.37L627.769 252.162L627.974 249.962L630.79 248.144L630.731 246.091Z" fill="#524D4F"></path><path d="M620.848 247.441L617.827 248.116V250.521L616.332 251.43L616.713 256.357L617.123 255.859L617.622 251.899L619.558 249.905L620.848 247.441Z" fill="#524D4F"></path><path d="M620.261 251.224C620.261 251.224 618.15 251.927 618.59 252.221C619.03 252.514 620.261 254.831 620.261 254.831H621.258V253.511L620.261 251.224Z" fill="#524D4F"></path><path d="M626.714 270.082L624.778 270.933V273.308L626.714 271.695V270.082Z" fill="#524D4F"></path><path d="M614.924 270.082L616.331 271.695L617.563 270.082L619.851 272.311L622.168 270.933L621.258 266.24L618.59 265.771L617.915 265.654L614.924 268.44V270.082Z" fill="#524D4F"></path><path d="M617.563 270.083L616.331 271.696L614.924 270.083V268.441L617.915 265.654L614.513 265.039L612.079 267.942L613.809 269.057L612.079 270.083H606.653V272.283L608.266 273.309L606.653 274.893L609.762 276.506L606.653 279.732H610.583L606.653 281.169L604.336 281.668L605.949 285.099L608.97 286.389L613.105 284.19L618.326 282.782L619.557 282.371L620.261 278.442L619.88 274.013L619.557 272.488L619.851 272.312L617.563 270.083Z" fill="#B8B3B5"></path><path d="M616.243 353.463L615.364 352.642L616.449 349.474L614.806 346.248L617.006 345.691L619.323 335.954L609.85 334.839L610.084 335.573L610.29 342.23L606.653 349.679L608.677 352.495L608.471 358.947H615.158L614.689 356.484L616.243 353.463Z" fill="#B8B3B5"></path><path d="M649.678 349.475L648.27 350.09L648.974 351.792L650.382 350.648L649.678 349.475Z" fill="#A5A0A1"></path><path d="M652.405 347.568L654.223 348.771L655.338 346.747L653.871 346.249L652.405 347.568Z" fill="#A5A0A1"></path><path d="M656.335 345.134H657.948L658.857 346.248H657.127L656.335 345.134Z" fill="#A5A0A1"></path><path d="M573.19 396.634V397.719V399.186L574.128 397.925L573.19 396.634Z" fill="#A5A0A1"></path><path d="M575.624 399.186L576.562 400.946L579.495 400.066V397.925L575.624 399.186Z" fill="#A5A0A1"></path><path d="M582.047 400.006H580.727V402.147L582.868 401.062L582.047 400.006Z" fill="#A5A0A1"></path><path d="M585.948 400.946H587.561L588.793 397.925H587.356L585.948 400.946Z" fill="#A5A0A1"></path><path d="M590.669 395.96L589.525 395.432L588.792 397.045H590.669V395.96Z" fill="#A5A0A1"></path><path d="M571.723 402.676H573.19L572.457 401.062L571.723 402.676Z" fill="#A5A0A1"></path><path d="M645.307 332.318L638.914 330.793L636.919 328.711L613.105 326.306L608.266 329.532L609.849 334.84L619.322 335.955L617.005 345.692L614.806 346.249L616.448 349.475L615.363 352.642L616.243 353.464L614.688 356.484L615.158 358.948H617.328L621.375 363.787L628.619 360.15H635.658L640.703 357.951L643.371 350.501L641.905 346.865L648.357 339.21L653.812 336.776L654.194 333.608L649.325 332.318H645.307Z" fill="#A5A0A1"></path><path d="M677.392 329.941L674.371 332.757L675.867 338.388H677.392V329.941Z" fill="#6B6365"></path><path d="M668.564 318.885L667.244 313.049L664.047 314.808L664.81 311.846L667.772 308.649L667.244 306.655H670.324L671.761 299.294L665.572 297.622L658.856 294.983L655.337 292.46L652.609 288.442L650.996 289.41L648.474 294.455L645.541 295.276L643.371 297.974L639.91 297.886L636.89 296.273L637.388 301.523L633.751 301.816L624.396 301.699L635.57 310.585L639.91 317.331L636.978 328.71H636.919L638.913 330.792L645.307 332.317H649.325L654.193 333.608L654.604 329.942L657.038 327.126L661.467 327.918L665.69 329.942L670.969 326.041L667.127 320.087L668.564 318.885Z" fill="#6B6365"></path><path d="M678.8 264.129L676.893 265.127L678.8 267.443L680.706 266.241L678.8 264.129Z" fill="#888183"></path><path d="M682.729 262.106L681.322 263.631L682.026 265.332L684.049 265.772V267.942L681.938 267.444L680.706 267.942L681.732 269.057H685.164V265.772L686.249 264.922V260.992L683.492 261.402L684.137 263.309L682.729 262.106Z" fill="#888183"></path><path d="M675.163 265.743L678.594 262.723L679.416 249.936L669.943 257.59L671.878 266.565C673.609 267.005 675.75 267.503 676.776 267.738L675.163 265.743Z" fill="#888183"></path><path d="M668.007 279.674L667.479 275.802L658.446 278.53L656.334 286.184L656.276 286.214L663.549 288.267L664.253 284.425H666.365L667.186 282.87L666.365 280.788L668.007 279.674Z" fill="#B8B3B5"></path><path d="M652.61 288.443L655.338 292.461L658.857 294.983L662.67 296.479L663.491 292.901V288.59L663.549 288.267L656.276 286.214L652.61 288.443Z" fill="#A5A0A1"></path><path d="M662.669 296.479L665.573 297.622L665.866 297.71L663.402 293.252L662.669 296.479Z" fill="#888183"></path><path d="M688.918 297.299L686.249 292.783L697.189 288.589L694.314 278.999L694.93 272.458L688.683 270.435L679.416 271.051L676.776 267.707C675.75 267.473 673.609 266.974 671.878 266.534L673.462 273.984L667.479 275.802L668.007 279.673L666.365 280.788L667.186 282.87L666.365 284.424H664.282L663.52 288.618V292.9L663.432 293.281L665.895 297.739L671.761 299.323L670.383 306.42L671.761 307.212L674.371 306.479L678.8 307.799L687.041 306.274L690.267 307.212L689.681 305.394L692.877 300.76L688.918 297.299Z" fill="#524D4F"></path><path d="M682.759 237.705L685.252 235.711L683.492 230.461L686.249 225.945L683.258 223.628L682.759 210.958L687.158 209.638L689.358 196.294L692.232 193.449L695.077 187.701L694.314 184.973L697.071 180.017L699.271 180.662L700.385 176.468L705.899 177.7L709.536 170.544L714.58 175.148L723.613 172.304L724.405 165.353L728.57 163.476L732.764 166.467L734.641 170.984L739.538 165.851L733.057 163.769L738.571 161.042L727.162 155L709.242 161.247L694.109 174.738L680.208 204.77L670.94 215.445L658.446 223.1L660.675 245.888L667.714 249.319L679.21 240.052L680.384 243.102H683.492L682.759 237.705Z" fill="#6B6365"></path><path d="M718.217 183.652L716.779 178.579L712.263 176.467L708.304 172.977L705.899 177.699L700.385 176.467L699.271 180.661L697.071 180.016L694.314 184.972L695.077 187.7L692.232 193.448L689.358 196.293L687.158 209.637L682.759 210.957L683.257 223.627L686.249 225.944L683.492 230.46L685.252 235.71L682.759 237.704L683.492 243.101H680.383L688.888 265.038L700.356 258.175L700.561 245.095L705.811 242.045L706.603 235.006L701.588 230.578L700.972 219.873L713.26 207.79L713.876 198.522L721.501 197.818L719.654 191.014L718.217 183.652Z" fill="#B8B3B5"></path><path d="M745.434 212.835L741.885 201.368V196.206L737.398 186.498L739.275 182.334L733.087 174.063L734.377 170.397L732.764 166.467L728.57 163.476L724.405 165.353L723.613 172.303L714.58 175.148L709.536 170.544L708.304 172.978L712.264 176.468L716.78 178.58L718.217 183.653L719.654 191.015L721.502 197.819L724.757 197.526V202.365L713.261 216.061L714.874 231.165L723.76 235.799L739.48 230.96L748.073 216.354L745.434 212.835Z" fill="#524D4F"></path><path d="M727.044 258.645L720.915 258.088L717.688 260.2V260.815L723.759 265.625L723.935 268.265H723.349L727.807 272.84L735.403 269.057L738.511 262.047L732.206 258.85L727.044 258.645Z" fill="#888183"></path><path d="M737.28 252.047L741.034 250.844L740.594 248.41L739.011 238.908L738.864 239.025L728.775 238.438L723.76 241.459L724.962 246.093L727.983 246.298L728.071 249.026L733.086 248.293L737.28 252.047Z" fill="#B8B3B5"></path><path d="M742.441 258.205L741.034 250.844L737.28 252.046L733.086 248.292L728.071 249.026L728.188 253.337L725.167 253.747L721.941 249.906L717.688 254.539V260.2L720.915 258.088L727.044 258.645L732.206 258.851L738.511 262.047L738.599 261.842L742.441 258.205Z" fill="#524D4F"></path><path d="M690.296 356.131L700.355 362.789L702.379 355.134L690.296 356.131Z" fill="#888183"></path><path d="M679.21 349.269L674.371 351.088V340.618L679.21 339.21V349.269Z" fill="#888183"></path><path d="M697.54 364.608L699.065 366.72L699.857 365.107L697.54 364.608Z" fill="#888183"></path><path d="M686.63 309.646L682.114 310.292L679.68 313.752H676.776L675.867 315.571L673.286 312.931L671.761 315.805H668.887L667.978 316.363L668.564 318.885L667.127 320.087L670.969 326.041L674.987 323.079L680.208 324.487L683.228 330.323L690.296 337.391L698.948 341.614L702.996 345.046L704.403 350.677L703.377 355.31L705.4 355.516L708.832 348.682L706.222 346.043L708.011 342.641L712.674 345.837L713.671 342.641L703.201 337.186L704.403 335.367L697.335 332.962L693.523 327.126L688.889 323.079V317.624L692.408 316.92L693.786 312.169L686.63 309.646Z" fill="#888183"></path><path d="M701.822 319.09L703.963 319.325H708.978L713.7 320.439L715.372 319.442L713.7 316.275L711.735 316.803L707.219 315.043L704.11 313.752L700.825 315.453L698.714 317.888L693.522 318.65L694.314 321.055L697.951 319.237L700.767 325.308L708.216 330.264L702.38 321.29L701.822 319.09Z" fill="#B8B3B5"></path><path d="M704.227 311.026L703.347 306.333H705.781V301.699L698.185 299.734L696.338 301.699L692.671 301.025L689.709 305.336L690.296 307.154L687.04 306.216L678.799 307.77L678.653 307.712L677.919 309.647L681.908 310.556L682.113 310.293L686.63 309.647L693.786 312.17L693.639 312.639L697.54 313.049L704.227 311.026Z" fill="#6B6365"></path><path d="M733.819 366.221V368.42L745.11 369.828L746.108 368.01L739.978 366.221H733.819Z" fill="#A5A0A1"></path><path d="M722.235 351.79L721.531 355.133H723.555L722.235 351.79Z" fill="#A5A0A1"></path><path d="M723.554 355.839L722.528 356.132L723.056 357.129L723.554 356.836V355.839Z" fill="#A5A0A1"></path><path d="M717.688 346.249L719.126 348.771L719.829 348.155L718.744 346.249H717.688Z" fill="#A5A0A1"></path><path d="M733.409 349.473L733.966 352.23L736.342 353.462L737.368 355.837L739.157 355.133L737.456 354.107L736.958 351.79L734.435 351.086V349.473H733.409Z" fill="#A5A0A1"></path><path d="M742.589 358.947H740.565V360.56H742.589V358.947Z" fill="#A5A0A1"></path><path d="M750.243 363.991L751.153 365.193L753.382 362.789L750.243 363.991Z" fill="#A5A0A1"></path><path d="M749.041 365.194V367.13L748.043 366.719L749.041 365.194Z" fill="#A5A0A1"></path><path d="M736.752 361.763L737.544 362.789L739.157 361.763L737.955 360.56L736.752 361.763Z" fill="#A5A0A1"></path><path d="M744.906 356.484L746.519 357.129L747.34 356.484L745.727 355.839L744.906 356.484Z" fill="#A5A0A1"></path><path d="M741.591 349.474L743.204 350.647L743.996 348.77V350.647H745.403L744.905 347.978H743.497L741.591 349.474Z" fill="#A5A0A1"></path><path d="M739.157 344.546V345.69L740.565 346.247V344.136L739.157 344.546Z" fill="#A5A0A1"></path><path d="M738.571 356.484L739.979 357.833L741.269 357.159L739.157 355.839L738.571 356.484Z" fill="#A5A0A1"></path><path d="M743.497 335.514V337.596L740.564 338.036L734.757 338.388L725.49 340.705L722.527 344.136L720.562 347.89L721.736 349.269L725.167 352.905L724.551 356.747L728.598 360.971L732.822 361.762L731.619 357.95H734.024L733.819 355.31L736.048 355.515L731.003 349.269L732.411 347.861L729.596 342.435L733.203 344.84L735.842 343.843L733.614 341.027L742.705 340.206L743.174 341.174L745.403 336.394L743.497 335.514Z" fill="#A5A0A1"></path><path d="M678.653 307.711L674.371 306.45L671.761 307.154L670.382 306.362L670.324 306.655H667.244L667.772 308.649L664.81 311.846L664.047 314.808L667.244 313.049L667.977 316.363L668.887 315.805H671.761L673.286 312.931L675.867 315.571L676.776 313.753H679.679L681.908 310.556L677.92 309.647L678.653 307.711Z" fill="#A5A0A1"></path><path d="M739.92 326.306L731.004 325.72L728.101 323.608V325.837L729.802 328.916L728.101 331.439L728.687 333.609L731.327 336.512L731.796 339.123L734.758 338.389L740.565 338.037L743.498 337.597V335.515L744.964 336.19L749.686 334.137L748.542 330.94L751.563 326.511V325.016L744.906 323.608L739.92 326.306Z" fill="#888183"></path><path d="M716.575 327.156H714.258L714.815 328.681L712.058 332.963L715.988 335.72L717.22 332.582L719.83 332.113V330.265L716.575 327.156Z" fill="#888183"></path><path d="M714.815 323.08L715.373 320.763L714.405 320.03L713.701 320.44L708.979 319.326H703.964L701.823 319.091L702.38 321.291L708.217 330.265L708.627 330.529L712.058 332.964L714.815 328.682L714.258 327.157H715.813L716.34 324.928L714.815 323.08Z" fill="#524D4F"></path><path d="M721.532 334.166L719.831 332.113L717.22 332.582L715.989 335.72L716.898 336.395V343.433L720.564 347.891L722.529 344.137L724.406 341.967L721.532 338.389V334.166Z" fill="#6B6365"></path><path d="M697.541 313.048L693.64 312.638L692.408 316.92L692.907 316.832L693.523 318.65L698.714 317.887L700.825 315.453L704.11 313.752L704.579 313.928L703.23 311.318L697.541 313.048Z" fill="#A5A0A1"></path><path d="M721.531 338.389L724.405 341.967L725.49 340.706L731.796 339.122L731.327 336.512L728.687 333.608L728.511 332.904L721.531 336.072V338.389Z" fill="#B8B3B5"></path><path d="M724.903 321.29L723.056 319.765L718.216 314.251L713.993 316.803L715.372 319.442L714.404 320.029L715.372 320.762L714.814 323.079L716.339 324.926L715.812 327.155H716.574L719.829 330.264V332.112L721.531 334.165V336.071L728.511 332.904L728.1 331.437L729.801 328.915L728.1 325.836V323.607L728.745 324.076L728.1 321.29H724.903Z" fill="#A5A0A1"></path><path d="M715.9 303.341L717.219 304.339L719.83 302.022L725.167 301.494V297.71H718.745L710.621 299.734L705.781 301.787V304.485L711.295 306.362L715.9 303.341Z" fill="#888183"></path><path d="M725.167 301.817V301.494L719.83 302.022L717.22 304.339L715.9 303.342L711.295 306.363L705.782 304.486V306.333H703.347L704.227 311.026L703.23 311.319L704.579 313.929L707.219 315.044L711.735 316.803L713.7 316.276L713.993 316.803L718.217 314.252L718.803 314.926L722.528 313.049L725.167 306.392L727.367 304.456L725.167 301.817Z" fill="#524D4F"></path><path d="M709.096 293.868L703.699 292.548L697.159 288.471L697.188 288.589L686.249 292.782L688.918 297.299L692.877 300.701L692.672 301.024L696.338 301.698L698.186 299.733L705.782 301.698V301.786L710.621 299.733L716.75 298.208L713.671 296.478L709.096 293.868Z" fill="#B8B3B5"></path><path d="M728.57 284.308L728.1 281.434L729.801 278.677L727.749 272.782L723.349 268.266H704.403L694.93 272.489L694.314 279.029L697.159 288.473L703.699 292.549L709.096 293.869L713.671 296.479L716.75 298.21L718.745 297.711H725.168V298.503L726.663 298.298L729.068 293.253L730.769 289.822L728.57 284.308Z" fill="#6B6365"></path><path d="M748.279 311.025L743.175 303.135L734.524 306.361L729.802 303.575L727.162 304.22L727.368 304.455L725.168 306.391L722.528 313.048L718.804 314.925L723.056 319.764L724.904 321.289H728.101L728.746 324.076L731.004 325.718L739.92 326.304L744.906 323.606L751.563 325.014V320.468L754.789 319.647L755.112 316.861L749.041 317.359L748.279 311.025Z" fill="#B8B3B5"></path><path d="M790.921 303.135L791.244 300.936L790.247 296.478L791.919 295.48L790.921 293.252L782.328 291.345L780.598 289.38L775.055 290.788L771.536 284.864L769.336 285.392L767.342 283.368L766.696 279.907H760.831L759.951 281.432L755.786 282.048L755.112 284.746H751.563H744.876L736.958 282.869L732.382 284.306L728.453 283.573L728.57 284.306L730.769 289.82L729.068 293.252L726.663 298.296L725.168 298.501V301.815L727.162 304.22L729.802 303.575L734.523 306.361L741.592 303.722V300.936H744.906L748.044 302.637L750.243 303.135L752.912 307.769L755.786 311.376L751.798 311.846L750.243 316.362H748.924L749.041 317.359L755.112 316.861L755.2 316.215L760.625 309.969L766.08 312.989L769.307 314.221L765.875 317.242L769.512 318.444L769.893 321.465L780.187 318.444V315.629L774.732 316.421L770.92 313.195L775.553 310.79L781.184 308.766L786.757 307.065L787.607 304.132L790.921 303.135Z" fill="#888183"></path><path d="M751.798 311.846L755.787 311.376L752.912 307.769L750.244 303.135L748.044 302.637L744.906 300.936H741.592V303.722L743.175 303.135L748.279 311.024L748.924 316.362H750.244L751.798 311.846Z" fill="#6B6365"></path><path d="M678.594 502.449L676.394 505.265L678.594 506.291V502.449Z" fill="#6B6365"></path><path d="M670.529 516.557H668.916V518.17H670.529V516.557Z" fill="#524D4F"></path><path d="M843.066 567.968L836.614 577.617L831.57 583.277L822.918 585.887L819.076 591.929L821.51 599.408L816.671 610.083V617.327L823.504 626.008L831.775 623.193L844.474 583.688L846.498 584.274V580.462L843.066 567.968Z" fill="#A5A0A1"></path><path d="M633.047 382.115L631.229 388.772L619.322 395.547L611.902 396.251L608.265 400.005V403.7L658.856 438.454L667.127 437.164L690.384 420.623L687.686 416.399L683.433 415.578L680.823 407.132L682.231 406.017L679.21 384.549L675.867 378.625L672.552 373.17L675.867 369.416L676.277 358.711L666.921 360.559L653.812 361.38L638.708 367.011L635.13 367.832L639.91 382.115H633.047Z" fill="#888183"></path><path d="M695.135 589.524L698.948 590.521H716.691L722.528 592.339L730.388 593.337L737.456 591.43L731.209 586.092V571.575L740.477 572.778L739.567 563.275H733.027L731.414 548.406L722.147 547.203L720.915 552.218L713.465 551.427L710.445 543.332H692.085L698.156 564.126L693.317 573.188L689.094 590.081L691.293 590.521L695.135 589.524Z" fill="#6B6365"></path><path d="M791.713 426.46L791.654 426.284L786.639 422.647L781.184 410.652L777.371 401.472L771.3 392.615L772.532 391.999L779.571 400.886L780.773 398.862L781.624 395.548L776.755 384.55L776.345 385.166L763.646 383.934L758.396 386.955L742.705 383.553L741.415 383.054L744.113 426.46H791.713Z" fill="#888183"></path><path d="M779.601 528.463H771.418L772.151 523.243L763.236 524.21L761.241 529.372V531.982H762.972L763.558 543.332L767.195 546.207L769.365 553.011L779.982 557.791L779.894 557.087H782.915L785.936 564.918V566.443H795.086L804.178 564.918L807.785 561.633V560.9L801.333 542.951L804.764 536.822L781.448 522.363L779.601 528.463Z" fill="#B8B3B5"></path><path d="M769.922 623.369L768.896 611.902L759.628 610.289L751.357 616.125L747.515 621.169L745.726 626.008L734.23 624.395L725.959 629.821L721.531 622.166V636.068L715.694 640.115L709.829 636.068L705.664 637.212L713.671 655.425L713.465 663.9L721.12 666.305L745.521 661.466L768.074 640.321L773.031 629.411L771.418 628.208L769.922 623.369Z" fill="#6B6365"></path><path d="M586.504 465.378L594.95 466.58L599.584 467.783L597.179 461.125L594.569 457.694L591.138 452.092L587.706 448.896H580.638L575.799 451.154L574.42 451.359L573.189 456.697L579.846 466.903L581.254 466.58L586.504 465.378Z" fill="#524D4F"></path><path d="M602.018 481.479L599.584 476.054L593.337 478.048L590.903 480.248L594.745 488.342L597.502 490.073L599.584 487.55L602.018 481.479Z" fill="#B8B3B5"></path><path d="M631.845 488.137L634.455 481.89L633.165 476.846H629.03L622.988 474.177H617.738L611.286 475.643L612.489 483.503L609.468 489.955V492.39L613.896 493.797L614.014 500.132L626.39 496.202L632.109 497.874L632.842 494.794L631.845 488.137Z" fill="#888183"></path><path d="M608.265 400.006L611.902 396.252L619.322 395.548L631.229 388.774L633.048 382.116H639.91L635.13 367.833L632.637 368.42L624.982 368.215L622.167 365.194L620.349 366.015L618.325 372.848L608.676 379.095L604.834 391.208L597.795 399.654L591.754 402.881L608.265 402.705V400.006Z" fill="#524D4F"></path><path d="M591.754 420.623H596.446V409.742H608.265L609.116 404.287L608.265 403.7V402.703L591.754 402.879H591.724L589.525 406.017L578.849 422.236L576.063 429.098H591.754V420.623Z" fill="#6B6365"></path><path d="M597.795 452.092L600.61 454.086L604.628 452.092L609.116 454.086H621.961L623.164 450.362L621.961 448.895L619.322 414.259L622.519 413.496L609.116 404.287L608.265 409.742H596.446V420.623H591.753V429.099H576.063L575.418 430.712L578.438 433.938L574.42 451.359L575.799 451.153L580.638 448.895H587.706L591.137 452.092L594.334 457.342L597.795 455.377V452.092Z" fill="#B8B3B5"></path><path d="M744.113 426.46L741.415 383.054L733.203 379.916L723.935 379.711L720.709 383.729L722.322 386.955L718.304 391.207L709.447 386.574L703.992 385.752L702.379 380.327L687.949 377.511L685.662 383.054L682.934 384.051V388.568L681.204 390.738L680.031 390.386L682.23 406.018L680.823 407.133L683.433 415.579L687.685 416.4L690.384 420.624L698.713 423.058L707.629 419.832L739.831 436.549L744.113 434.936L744.406 426.46H744.113Z" fill="#6B6365"></path><path d="M682.934 388.568V384.052L685.662 383.055L687.949 377.512L687.861 377.482L681.82 373.259L685.867 369.241L685.046 366.015L683.022 363.786L685.251 359.357L682.025 360.149L680.207 357.95L676.277 358.712L675.866 369.417L672.552 373.171L675.866 378.626L679.209 384.55L680.031 390.387L681.204 390.739L682.934 388.568Z" fill="#B8B3B5"></path><path d="M796.494 456.492L797.901 458.516L801.949 457.519L806.172 458.516L812.624 463.56L816.173 467.784L819.047 466.933L819.076 466.581L808.401 456.287L803.767 454.498L799.632 443.969L794.294 446.433L792.681 451.976V458.516H794.294L796.494 456.492Z" fill="#6B6365"></path><path d="M820.689 480.277L817.874 473.766L818.314 473.092L813.65 474.177L814.853 470.218L815.557 467.05L812.624 463.56L806.172 458.516L801.949 457.519L797.901 458.516L796.493 456.492L794.294 458.516H792.681V459.132L790.628 463.15L785.495 472.623L782.475 482.712L778.779 484.501L779.894 486.319L782.915 488.548L788.252 496.408L790.628 499.839H796.493L800.13 502.449L805.585 504.356L810.014 499.429L815.909 501.247L822.508 498.021L829.106 497.2L840.251 484.911L820.689 480.277Z" fill="#888183"></path><path d="M824.912 476.259L819.721 470.863L817.873 473.766L820.689 480.277L840.25 484.911L829.106 497.199L822.507 498.021L815.908 501.247L814.676 500.866L811.216 504.356V521.395L813.708 524.621L834.385 505.059L847.494 485.732L851.923 468.986L824.912 476.259Z" fill="#B8B3B5"></path><path d="M811.216 504.356L814.677 500.865L810.014 499.428L805.585 504.356L800.13 502.449L796.494 499.839H790.628L788.252 496.408L787.431 495.176L782.387 500.132L786.815 509.517L784.528 513.623L781.595 517.553H782.915L781.448 522.363L804.764 536.822L809.193 528.845L813.709 524.621L811.216 521.395V504.356Z" fill="#A5A0A1"></path><path d="M769.922 507.904L767.898 513.623L763.851 520.808V524.152L772.151 523.242L772.943 517.553H781.595L784.527 513.623L786.815 509.517L782.592 500.513L769.922 502.449V507.904Z" fill="#6B6365"></path><path d="M779.894 563.716L778.516 568.35L777.167 573.805L778.516 578.028L782.915 579.641L781.448 584.069L784.528 590.316L788.047 584.685V578.233L785.936 574.978V577.031H782.915L781.39 567.968L779.982 557.791L777.167 556.53V558.877L779.894 563.716Z" fill="#6B6365"></path><path d="M753.967 607.649L752.97 603.22L748.747 599.789L744.318 593.336H736.253L727.367 594.949V609.056L722.733 610.288V624.248L725.959 629.821L734.23 624.395L745.726 626.008L747.515 621.169L751.357 616.124L759.51 610.347L758.22 607.649H753.967Z" fill="#524D4F"></path><path d="M773.031 604.629L775.348 599.408V587.707L765.934 584.686V582.662L759.628 583.865L758.602 586.504L750.742 593.338L744.906 591.549L744.202 593.338H744.319L748.748 599.79L752.971 603.221L753.968 607.65H758.221L759.511 610.348L759.628 610.289L768.896 611.902V612.108L773.031 607.65V604.629Z" fill="#888183"></path><path d="M737.455 591.431L730.387 593.337L722.527 592.34L716.691 590.522H698.948L695.135 589.524L691.293 590.522L689.093 590.082L688.888 590.932L695.927 604.042L699.974 620.554L705.605 637.095L705.664 637.212L709.828 636.068L715.694 640.115L721.53 636.068V622.167L722.733 624.249V610.289L727.366 609.057V594.95L736.253 593.337H744.201L744.611 592.311L736.722 590.815L737.455 591.431Z" fill="#B8B3B5"></path><path d="M715.694 502.449L711.236 504.356L708.01 511.13L696.894 510.104L697.334 513.535L701.176 512.333L702.379 515.999L699.153 518.99L701.587 521.19L699.153 528.463L694.314 526.234L689.093 528.463L692.114 529.666V531.983L688.067 534.3L690.296 537.115L690.882 539.168L695.927 537.76L696.132 537.32H697.54H701.382L702.995 538.523L708.215 534.094V528.463L714.785 522.363L716.486 510.72L719.712 504.356L715.694 502.449Z" fill="#B8B3B5"></path><path d="M691.704 541.955H694.108L695.927 537.761L690.882 539.168L691.704 541.955Z" fill="#524D4F"></path><path d="M688.889 509.546L681.703 509.664L680.442 514.737H688.889V509.546Z" fill="#6B6365"></path><path d="M692.114 529.666L689.093 528.464L694.314 526.235L699.153 528.464L701.587 521.19L699.153 518.991L702.379 515.999L701.177 512.333L697.335 513.536L696.895 510.104L690.384 509.518L688.888 509.547V514.738H680.442L678.594 522.187L688.067 534.3L692.114 531.983V529.666Z" fill="#A5A0A1"></path><path d="M768.074 504.355L764.76 499.223L757.604 500.132L754.906 496.994L745.902 497.815L734.64 498.431V501.452L727.983 500.572L722.733 496.789L719.712 500.132L718.07 503.593L719.712 504.355L716.486 510.719L714.785 522.363L708.215 528.463V534.094L702.995 538.523L701.382 537.32H696.132L694.108 541.954H691.704L692.085 543.332H710.444L713.465 551.427L720.914 552.219L722.146 547.204L731.414 548.406L733.027 563.275H739.567L739.802 565.827L743.497 564.918L748.952 567.968L753.586 567.059L759.628 572.778L763.851 573.804V568.349H760.419L758.015 564.918L759.628 558.495L758.396 556.061L765.523 551.28L761.299 543.978L759.628 531.982H761.241V529.372L763.235 524.21L763.851 524.152V520.808L767.898 513.623L769.922 507.904V504.355H768.074Z" fill="#888183"></path><path d="M753.381 495.176L746.518 488.137L743.087 484.5L738.453 480.424L735.432 472.006L735.374 471.889L730.798 476.054L728.188 480.424H719.712L720.71 484.5L713.055 487.14L708.421 488.137L706.221 486.759L703.787 491.979L702.79 495.997L705.4 502.449L709.624 507.787L711.237 504.355L715.694 502.449L718.07 503.593L719.712 500.132L722.733 496.789L727.983 500.572L734.64 501.452V498.431L745.902 497.815L754.906 496.994L753.381 495.176Z" fill="#6B6365"></path><path d="M587.823 465.554L586.504 465.378L581.254 466.58L579.846 466.903L583.864 473.033L584.216 473.355L588.791 470.54L587.823 465.554Z" fill="#888183"></path><path d="M606.858 487.14V484.501L604.629 483.063H601.373L599.584 487.551L597.502 490.073L613.691 500.25L614.014 500.132L613.896 493.798L609.468 492.39V489.956L610.788 487.14H609.468H606.858Z" fill="#A5A0A1"></path><path d="M609.115 467.783L606.153 467.021L602.018 468.663L599.349 467.079L599.584 467.783L594.95 466.581L587.823 465.554L588.791 470.54L584.216 473.355L590.727 479.866L590.903 480.248L593.337 478.048L599.584 476.054L602.018 481.479L601.373 483.063H604.628L606.857 484.5V487.14H609.467H610.787L612.488 483.503L611.286 475.643L614.189 474.998L609.467 471.889L609.115 467.783Z" fill="#6B6365"></path><path d="M684.665 489.838L688.888 491.657L691.704 487.14L697.54 477.256L701.587 470.54L700.883 464.968L697.745 462.152L694.314 464.147L689.093 463.15L681.82 465.584L676.394 463.15L672.142 464.352L668.916 461.126L660.264 461.947L658.24 468.986L660.264 474.177L656.217 480.072V491.598L657.448 491.158L665.895 500.25L678.007 499.106L680.031 493.387L684.665 489.838Z" fill="#524D4F"></path><path d="M705.4 502.45L702.79 495.998L703.787 491.98L706.602 485.938L702.174 480.689L700.561 477.345H706.602L703.992 474.178V467.784L700.883 464.969L701.587 470.541L697.54 477.257L691.704 487.141L688.888 491.657L684.665 489.839L680.031 493.388L678.007 499.107L678.799 499.019L682.641 505.882L681.703 509.665L690.384 509.518L708.01 511.131L709.623 507.788L705.4 502.45Z" fill="#888183"></path><path d="M649.324 464.968L648.562 461.156L644.955 459.542L646.04 455.876H641.113L631.845 461.156H628.208L623.164 469.367L622.313 474.177H622.988L629.029 476.846H632.05L633.047 471.89H643.371H647.77L653.02 468.986L654.955 467.52L652.404 463.766L649.324 464.968Z" fill="#6B6365"></path><path d="M646.04 483.063V476.054L643.606 471.889H643.371H633.047L632.05 476.846H633.165L634.455 481.89L631.845 488.137L632.842 494.794L632.109 497.874L636.068 499.018L648.474 494.472L646.04 490.073V483.063Z" fill="#B8B3B5"></path><path d="M658.24 468.986L658.592 467.813L656.217 466.581L653.02 468.986L647.77 471.889H647.242L650.175 475.233L651.289 480.688L650.175 489.838L651.612 493.299L656.217 491.598V480.072L660.264 474.177L658.24 468.986Z" fill="#A5A0A1"></path><path d="M651.289 480.688L650.175 475.233L647.242 471.889H643.605L646.04 476.054V483.063V490.073L648.474 494.472L651.612 493.299L650.175 489.838L651.289 480.688Z" fill="#524D4F"></path><path d="M660.264 452.796L661.349 444.614V438.074L658.856 438.455L622.519 413.497L619.322 414.259L621.962 448.896L623.164 450.362L621.962 454.087H609.116L604.629 452.092L600.611 454.087L597.795 452.092V455.377L594.334 457.342L594.569 457.694L597.179 461.125L599.35 467.079L602.018 468.663L606.154 467.02L609.116 467.783L609.468 471.889L614.19 474.998L617.738 474.176H622.314L623.164 469.367L628.208 461.155H631.845L641.113 455.876H646.04L645.893 456.374L650.85 455.876L660.264 452.796Z" fill="#A5A0A1"></path><path d="M736.429 453.09H740.476L739.244 436.256L707.629 419.832L702.701 421.592L704.608 426.46L704.872 429.686L707.013 433.059L705.546 438.455V448.896L697.628 456.492V462.211L697.745 462.153L703.992 467.784V474.177L706.602 477.345H700.561L702.174 480.688L706.602 485.938L706.221 486.759L708.42 488.137L713.054 487.14L720.709 484.501L719.712 480.424H728.188L730.798 476.054L735.373 471.889L732.206 465.584L733.203 461.126L736.429 453.09Z" fill="#A5A0A1"></path><path d="M705.547 448.896V438.456L707.013 433.059L704.872 429.686L704.608 426.46L702.702 421.592L698.713 423.058L690.384 420.624L667.127 437.165L661.349 438.074V444.614L660.264 452.797L650.85 455.876L645.893 456.375L644.955 459.542L648.562 461.156L649.324 464.968L652.404 463.766L654.955 467.52L656.217 466.581L658.592 467.813L660.264 461.947L668.916 461.126L672.142 464.352L676.394 463.15L681.82 465.584L689.093 463.15L694.314 464.147L697.628 462.211V456.492L705.547 448.896Z" fill="#B8B3B5"></path><path d="M778.016 576.473L777.166 573.804L778.515 568.349L779.893 563.715L777.166 558.876V556.53L769.364 553.01L769.922 554.653H767.487L765.522 551.28L758.396 556.06L759.627 558.494L758.014 564.917L760.419 568.349H763.851V573.804L759.627 572.777L753.586 567.058L748.952 567.968L743.497 564.917L739.802 565.827L740.476 572.777L731.208 571.575V586.092L736.722 590.814L744.611 592.31L744.905 591.547L750.741 593.336L758.601 586.503L759.627 583.863L765.288 582.778L765.933 580.637L778.016 576.473Z" fill="#A5A0A1"></path><path d="M804.177 564.919L795.086 566.444H785.935V574.978L788.047 578.234V584.686L784.528 590.317L781.448 584.07L782.915 579.641L778.515 578.028L778.017 576.474L765.934 580.638L765.288 582.779L765.934 582.662V584.686L775.348 587.707V599.408L773.031 604.629V607.65L768.896 612.108L769.922 623.37L771.418 628.209L773.031 629.411L773.94 627.417L773.53 625.188L784.821 619.146V610.876L782.797 600.2L806.377 583.278L807.785 576.005V561.634L804.177 564.919Z" fill="#524D4F"></path><path d="M813.65 474.177L818.314 473.092L819.721 470.863L818.871 470.013L819.047 466.933L816.173 467.784L815.557 467.05L814.853 470.218L813.65 474.177Z" fill="#A5A0A1"></path><path d="M799.309 443.206L794.293 438.953L791.713 426.459H744.406L744.113 434.935L739.831 436.548L739.245 436.255L740.476 453.089H736.429L733.203 461.125L732.206 465.583L735.432 472.006L738.423 480.365L744.612 476.347H755.551L761.241 476.053L768.162 473.355L775.347 464.967L781.448 471.889L785.436 472.827L785.495 472.622L790.627 463.149L792.68 459.131V451.975L794.293 446.432L799.631 443.968L799.309 443.206Z" fill="#524D4F"></path><path d="M775.347 464.967L768.162 473.355L761.24 476.053L755.551 476.346H744.611L738.423 480.364L738.452 480.423L743.086 484.499L746.518 488.136L753.38 495.175L757.604 500.131L764.76 499.222L768.074 504.355H769.921V502.448L782.591 500.513L782.386 500.131L787.43 495.175L782.914 488.547L779.893 486.318L778.779 484.499L782.474 482.71L785.436 472.827L781.448 471.888L775.347 464.967Z" fill="#B8B3B5"></path></g><defs><clipPath id="clip0_588_5933"><rect width="1376.55" height="784" fill="white"></rect></clipPath></defs></svg>