<svg xmlns="http://www.w3.org/2000/svg" width="59" height="228" viewBox="0 0 59 228" fill="none"><rect width="228" height="59" transform="translate(0 228) rotate(-90)" fill="#ED2838"></rect><path d="M41 196.038L19.94 196.038L19.94 189.356C19.94 188.091 20.1827 187.059 20.668 186.262C21.136 185.465 21.8207 184.875 22.722 184.494C23.6233 184.095 24.7153 183.896 25.998 183.896C27.506 183.896 28.6847 184.156 29.534 184.676C30.3833 185.179 30.99 185.872 31.354 186.756C31.7007 187.64 31.874 188.654 31.874 189.798L31.874 191.748L41 191.748L41 196.038ZM28.858 191.748L28.858 190.24C28.858 189.616 28.7627 189.139 28.572 188.81C28.364 188.463 28.0433 188.229 27.61 188.108C27.1767 187.987 26.622 187.926 25.946 187.926C25.3047 187.926 24.7673 187.978 24.334 188.082C23.9007 188.169 23.5627 188.377 23.32 188.706C23.0773 189.035 22.956 189.555 22.956 190.266L22.956 191.748L28.858 191.748ZM41 183.9L19.94 179.818L19.94 175.06L41 171.004L41 174.982L36.372 175.736L36.372 179.064L41 179.87L41 183.9ZM33.746 178.674L33.746 176.152L25.244 177.426L33.746 178.674ZM41.312 163.767C41.312 165.189 41.0173 166.315 40.428 167.147C39.8213 167.979 38.972 168.577 37.88 168.941C36.7707 169.288 35.488 169.461 34.032 169.461L26.986 169.461C25.478 169.461 24.178 169.279 23.086 168.915C21.994 168.551 21.1533 167.919 20.564 167.017C19.9747 166.099 19.68 164.859 19.68 163.299C19.68 161.791 19.9313 160.604 20.434 159.737C20.9367 158.853 21.6473 158.221 22.566 157.839C23.4847 157.458 24.5767 157.267 25.842 157.267L27.064 157.267L27.064 161.453L25.582 161.453C25.0273 161.453 24.542 161.488 24.126 161.557C23.6927 161.627 23.3547 161.791 23.112 162.051C22.8693 162.294 22.748 162.693 22.748 163.247C22.748 163.819 22.8953 164.235 23.19 164.495C23.4847 164.755 23.866 164.92 24.334 164.989C24.7847 165.059 25.27 165.093 25.79 165.093L35.124 165.093C35.7133 165.093 36.242 165.041 36.71 164.937C37.178 164.833 37.542 164.643 37.802 164.365C38.062 164.071 38.192 163.655 38.192 163.117C38.192 162.58 38.0533 162.164 37.776 161.869C37.4987 161.575 37.126 161.375 36.658 161.271C36.1727 161.15 35.6267 161.089 35.02 161.089L32.784 161.089L32.784 163.143L30.184 163.143L30.184 157.215L41 157.215L41 160.023L39.102 160.283C39.7433 160.561 40.272 160.977 40.688 161.531C41.104 162.086 41.312 162.831 41.312 163.767ZM41.286 148.394C41.286 149.937 41.0087 151.159 40.454 152.06C39.8993 152.962 39.1107 153.612 38.088 154.01C37.048 154.392 35.8087 154.582 34.37 154.582L26.518 154.582C25.0793 154.582 23.8487 154.392 22.826 154.01C21.8033 153.612 21.0233 152.962 20.486 152.06C19.9487 151.159 19.68 149.937 19.68 148.394C19.68 146.834 19.9573 145.604 20.512 144.702C21.0493 143.784 21.8293 143.134 22.852 142.752C23.8573 142.354 25.0793 142.154 26.518 142.154L34.37 142.154C35.8087 142.154 37.048 142.354 38.088 142.752C39.1107 143.134 39.8993 143.784 40.454 144.702C41.0087 145.604 41.286 146.834 41.286 148.394ZM38.192 148.394C38.192 147.84 38.0707 147.432 37.828 147.172C37.568 146.912 37.23 146.739 36.814 146.652C36.3807 146.566 35.9213 146.522 35.436 146.522L25.478 146.522C24.9927 146.522 24.542 146.566 24.126 146.652C23.71 146.739 23.3807 146.912 23.138 147.172C22.878 147.432 22.748 147.84 22.748 148.394C22.748 148.914 22.878 149.304 23.138 149.564C23.3807 149.824 23.71 149.998 24.126 150.084C24.542 150.171 24.9927 150.214 25.478 150.214L35.436 150.214C35.9213 150.214 36.3807 150.18 36.814 150.11C37.23 150.024 37.568 149.85 37.828 149.59C38.0707 149.33 38.192 148.932 38.192 148.394ZM41.286 133.83C41.286 135.13 41.052 136.213 40.584 137.08C40.0987 137.947 39.3793 138.605 38.426 139.056C37.4553 139.489 36.2247 139.741 34.734 139.81L34.11 136.118C34.9767 136.083 35.7047 135.997 36.294 135.858C36.866 135.702 37.2993 135.477 37.594 135.182C37.8713 134.87 38.01 134.489 38.01 134.038C38.01 133.483 37.8367 133.111 37.49 132.92C37.1433 132.712 36.7447 132.608 36.294 132.608C35.41 132.608 34.6733 132.825 34.084 133.258C33.4773 133.674 32.8707 134.229 32.264 134.922L30.366 137.106C29.7073 137.886 28.962 138.527 28.13 139.03C27.298 139.515 26.2753 139.758 25.062 139.758C23.3287 139.758 22.0027 139.255 21.084 138.25C20.148 137.227 19.68 135.832 19.68 134.064C19.68 133.007 19.8533 132.14 20.2 131.464C20.5467 130.788 21.0147 130.268 21.604 129.904C22.176 129.523 22.8087 129.263 23.502 129.124C24.178 128.968 24.854 128.873 25.53 128.838L26.076 132.504C25.4347 132.539 24.8713 132.599 24.386 132.686C23.9007 132.755 23.5193 132.911 23.242 133.154C22.9647 133.379 22.826 133.726 22.826 134.194C22.826 134.697 23.0167 135.069 23.398 135.312C23.762 135.555 24.1693 135.676 24.62 135.676C25.3653 135.676 25.9807 135.511 26.466 135.182C26.934 134.835 27.428 134.367 27.948 133.778L29.82 131.646C30.5827 130.762 31.458 130.008 32.446 129.384C33.4167 128.743 34.6213 128.422 36.06 128.422C37.048 128.422 37.9407 128.647 38.738 129.098C39.5353 129.549 40.1593 130.181 40.61 130.996C41.0607 131.793 41.286 132.738 41.286 133.83ZM41 119.663L19.94 119.663L19.94 110.485L22.904 110.485L22.904 115.373L28.494 115.373L28.494 111.603L31.484 111.603L31.484 115.373L38.088 115.373L38.088 110.433L41 110.433L41 119.663ZM41 108.263L19.94 108.263L19.94 105.273L30.912 100.593L19.94 100.593L19.94 97.0566L41 97.0566L41 99.9166L29.352 104.597L41 104.597L41 108.263ZM41 87.3661L19.94 87.3661L19.94 83.0761L38.088 83.0761L38.088 78.1361L41 78.1361L41 87.3661ZM41 76.0661L19.94 76.0661L19.94 71.8021L41 71.8021L41 76.0661ZM18.354 75.2081L13.154 73.5961L13.154 69.6181L18.354 72.8161L18.354 75.2081ZM41 68.5771L19.94 68.5771L19.94 65.5871L30.912 60.9071L19.94 60.9071L19.94 57.3711L41 57.3711L41 60.2311L29.352 64.9111L41 64.9111L41 68.5771ZM41 54.1806L19.94 54.1806L19.94 45.0026L22.904 45.0026L22.904 49.8906L28.494 49.8906L28.494 46.1206L31.484 46.1206L31.484 49.8906L38.088 49.8906L38.088 44.9506L41 44.9506L41 54.1806ZM41 43.8202L19.94 39.7382L19.94 34.9802L41 30.9242L41 34.9022L36.372 35.6562L36.372 38.9842L41 39.7902L41 43.8202ZM33.746 38.5942L33.746 36.0722L25.244 37.3462L33.746 38.5942Z" fill="white"></path></svg>