<svg xmlns="http://www.w3.org/2000/svg" width="60" height="60" viewBox="0 0 60 60" fill="none"><g clip-path="url(#clip0_754_3512)"><rect x="7" y="14" width="46" height="32" fill="white"></rect><path d="M30 0.000976562C13.4319 0.000976562 0 13.431 0 29.9998C0 46.5679 13.4319 59.9985 30 59.9985C46.5681 59.9985 60 46.5673 60 29.9991C60 13.431 46.5681 0.000976562 30 0.000976562ZM41.546 44.2483C41.0605 44.2483 40.7293 44.0806 40.2761 43.8037C35.9279 41.1731 30.5056 39.7903 24.754 39.7903C21.5433 39.7903 18.3125 40.2033 15.2909 40.8315C14.7999 40.9382 14.1827 41.1267 13.8119 41.1267C12.6731 41.1267 11.9144 40.2228 11.9144 39.2408C11.9144 37.9819 12.6402 37.3525 13.5459 37.1799C17.2512 36.3351 20.9413 35.8526 24.7741 35.8526C31.3382 35.8526 37.1886 37.3598 42.223 40.3771C42.972 40.8144 43.4105 41.2609 43.4105 42.3716C43.4111 43.4542 42.5316 44.2483 41.546 44.2483ZM44.8146 36.3083C44.1638 36.3083 43.7545 36.0448 43.3111 35.7874C38.4317 32.8914 31.6675 30.9677 24.2618 30.9677C20.4631 30.9677 17.1842 31.5002 14.4706 32.223C13.8857 32.3846 13.5581 32.5578 13.0104 32.5578C11.721 32.5578 10.6671 31.5051 10.6671 30.2059C10.6671 28.9306 11.2861 28.0535 12.5328 27.7022C15.9051 26.7751 19.35 26.0621 24.3618 26.0621C32.2147 26.0621 39.8113 28.0175 45.7831 31.5917C46.7847 32.1644 47.153 32.8951 47.153 33.9625C47.153 35.2592 46.1186 36.3083 44.8146 36.3083ZM48.5364 27.0739C47.9264 27.0739 47.5635 26.9251 46.9914 26.6116C41.5624 23.3558 33.1344 21.5632 24.9858 21.5632C20.9175 21.5632 16.7865 21.9774 13.0019 23.0039C12.5658 23.113 12.0162 23.3314 11.4642 23.3314C9.86378 23.3314 8.63538 22.0652 8.63538 20.4653C8.63538 18.8344 9.64543 17.9195 10.7348 17.5981C15.0116 16.3386 19.7849 15.7518 24.9742 15.7518C33.7834 15.7518 43.0519 17.5639 49.8215 21.5388C50.7339 22.0566 51.3664 22.8355 51.3664 24.264C51.3652 25.8986 50.0514 27.0739 48.5364 27.0739Z" fill="#ED2838"></path></g><defs><clipPath id="clip0_754_3512"><rect width="60" height="60" fill="white"></rect></clipPath></defs></svg>